<ttFont>
          <CharString index="0">
            168 117 131 211 211 -117 126 -168 -168 -117 -126 -211 -211 117 -131 168 hvcurveto
            89 vmoveto
            -109 -71 99 154 154 71 94 109 109 71 -94 -154 -154 -71 -99 -109 hvcurveto
            return
          </CharString>
          <CharString index="1">
            108 hlineto
            -217 655 rlineto
            -118 hlineto
            -217 -655 rlineto
            104 hlineto
            56 187 23 callgsubr
            hlineto
            -204 81 rmoveto
            27 88 22 71 20 73 19 74 rlinecurve
            4 hlineto
            20 -73 20 -74 22 -71 26 -88 rcurveline
            endchar
          </CharString>
          <CharString index="2">
            121 109 94 162 163 -109 94 -121 -121 -109 -21 callsubr
            109 -94 121 hvcurveto
            83 vmoveto
            -77 -49 69 104 104 49 70 77 77 49 -70 -104 -104 -49 -69 -77 hvcurveto
            return
          </CharString>
          <CharString index="3">
            rmoveto
            -1 154 rlineto
            -107 hlineto
            1 -159 2 -198 -90 -111 -204 -13 rlinecurve
            -16 136 140 56 46 85 2 143 rlinecurve
            1 60 rlineto
            -102 -62 hlineto
            -2 -115 -21 -52 -74 -37 -32 267 rcurveline
            -102 hlineto
            73 -572 332 -3 156 141 -2 280 rlinecurve
            return
          </CharString>
          <CharString index="4">
            rmoveto
            -77 callgsubr
            -92 callsubr
            -52 callgsubr
            endchar
          </CharString>
          <CharString index="5">
            rmoveto
            143 87 86 105 96 -56 48 -77 32 hvcurveto
            -91 39 rlineto
            -53 22 -53 21 56 vvcurveto
            53 44 32 67 58 46 -22 -36 41 vhcurveto
            53 65 rlineto
            50 -49 -72 32 -77 hhcurveto
            -124 -90 -77 -103 -96 70 -49 63 -26 hvcurveto
            91 -40 rlineto
            61 -26 44 -19 -60 vvcurveto
            -56 -45 -38 -79 -64 -64 31 47 -47 vhcurveto
            -60 -70 rlineto
            -61 60 83 -36 90 hhcurveto
            return
          </CharString>
          <CharString index="6">
            -35 -25 -24 -39 -36 28 -21 32 3 3 0 1 3 hvcurveto
            -58 -27 -35 -53 -32 vhcurveto
            26 -46 rlineto
            77 42 40 62 84 vvcurveto
            65 -26 37 -46 vhcurveto
            return
          </CharString>
          <CharString index="7">
            rmoveto
            67 48 34 52 44 hvcurveto
            3 hlineto
            8 -74 rlineto
            83 489 -101 -340 hlineto
            -52 -41 -31 -22 -46 hhcurveto
            -58 -25 34 85 hvcurveto
            295 -101 -308 vlineto
            -124 46 -69 104 vhcurveto
            endchar
          </CharString>
          <CharString index="8">
            -59 -12 83 174 74 252 78 hstem
            38 94 233 94 vstem
            233 649 rmoveto
            -106 -89 -82 -125 -132 74 -65 110 48 57 29 48 38 hvcurveto
            -187 -4 -70 -64 -84 hhcurveto
            -39 -39 20 29 -25 hvcurveto
            -55 -62 rlineto
            -39 37 53 -31 73 hhcurveto
            129 118 101 251 210 -101 99 -125 hvcurveto
            7 -330 rmoveto
            -70 -38 45 78 81 45 48 57 70 47 -56 -117 11 hvcurveto
            -57 -38 -46 -22 -38 hhcurveto
            endchar
          </CharString>
          <CharString index="9">
            38 callsubr
            33 23 25 31 32 -23 24 -33 -32 -24 -24 -32 -31 24 -25 32 -9 callsubr
            return
          </CharString>
          <CharString index="10">
            rmoveto
            144 98 79 213 hvcurveto
            375 -98 -381 vlineto
            -149 -61 -48 -83 -82 -59 48 149 vhcurveto
            381 -102 -375 vlineto
            -213 99 -79 144 vhcurveto
            endchar
          </CharString>
          <CharString index="11">
            -59 -12 83 260 74 146 86 hstem
            86 90.5 179.5 102 vstem
            238 -12 rmoveto
            115 105 79 139 137 -90 62 -109 -35 -27 -8 -15 -28 hvcurveto
            15 169 rlineto
            243 86 -331 hlineto
            -20 -311 50 -32 rlineto
            25 38 25 12 42 hhcurveto
            75 50 -47 -81 -82 -56 -50 -74 -69 -47 33 37 -38 hvcurveto
            -48 -65 rlineto
            -46 46 65 -42 103 hhcurveto
            endchar
          </CharString>
          <CharString index="12">
            -77 callgsubr
            -18 13 -15 19 19 12 15 18 -52 callgsubr
            return
          </CharString>
          <CharString index="13">
            181 -10 47 89 64 259 64 94 47 hstem
            48 53 96 78 370 53 vstem
            373 -10 rmoveto
            175 150 129 205 204 -150 126 -175 -175 -150 -126 -204 -205 150 -129 175 hvcurveto
            47 vmoveto
            -150 -122 115 172 171 122 112 150 150 122 -112 -171 -172 -122 -115 -150 hvcurveto
            9 89 rmoveto
            58 39 24 31 37 hvcurveto
            -35 50 rlineto
            -23 -28 -28 -18 -40 hhcurveto
            -67 -43 51 82 73 44 53 70 33 23 -14 -25 26 hvcurveto
            40 46 rlineto
            32 -32 -37 25 -58 hhcurveto
            -98 -89 -73 -117 -123 81 -74 104 hvcurveto
            endchar
          </CharString>
          <CharString index="14">
            -59 0 86 482 81 hstem
            332 98 vstem
            39 hmoveto
            422 86 -168 hlineto
            -32 -41 -3 -3 -34 hvcurveto
            137 144 107 117 116 vvcurveto
            116 -77 76 -120 -85 -58 -37 -61 -56 vhcurveto
            57 -56 rlineto
            40 35 43 33 51 hhcurveto
            74 38 -46 -70 -100 -110 -113 -183 -180 hvcurveto
            endchar
          </CharString>
          <CharString index="15">
            -18 13 -16 19 19 12 16 18 return
          </CharString>
          <CharString index="16">
            hmoveto
            -139 208 116 354 rlineto
            -103 hlineto
            -51 -174 -25 -87 -84 126 -84 135 rlineto
            -109 hlineto
            92 -147 -28 -71 -110 -344 rlineto
            102 hlineto
            99 319 210 -319 rlineto
            return
          </CharString>
          <CharString index="17">
            rmoveto
            -96 callgsubr
            return
          </CharString>
          <CharString index="18">
            397 86 -295 213 241 86 -241 184 285 86 -387 hlineto
            return
          </CharString>
          <CharString index="19">
            -59 -97 81 350 76 175 82 0 -20 hstemhm
            22 449 -261 97.5 hintmask 11101000
            397 585 rmoveto
            24 16 -7 -6 14 hvcurveto
            hintmask 11011000
            20 77 rlineto
            hintmask 11101000
            9 -19 -33 9 -28 hhcurveto
            hintmask 11100100
            -114 -49 -68 -137 -15 hvcurveto
            -6 -52 rlineto
            -21 hlineto
            -71 -5 rlineto
            -71 84 vlineto
            -22 -198 -11 -105 -22 -46 -58 -1 rlinecurve
            -17 -16 3 7 -15 hvcurveto
            -16 -76 rlineto
            -9 16 27 -6 33 hhcurveto
            119 40 87 121 13 hvcurveto
            25 223 rlineto
            128 76 -119 hlineto
            7 60 rlineto
            hintmask 11101000
            63 7 24 52 55 hhcurveto
            endchar
          </CharString>
          <CharString index="20">
            rmoveto
            85 67 34 61 52 hvcurveto
            -55 64 rlineto
            -43 -39 -46 -27 -60 hhcurveto
            -116 -74 96 156 154 79 95 114 53 41 -24 -35 34 hvcurveto
            55 66 rlineto
            43 -40 -64 39 -81 hhcurveto
            -166 -130 31 callgsubr
            127 -123 164 hvcurveto
            endchar
          </CharString>
          <CharString index="21">
            -59 0 86 195 66 219 83 hstemhm
            111 98 -51 90 6 callgsubr
            191 86 rmoveto
            4 vlineto
            38 40 19 40 63 vvcurveto
            17 -2 16 -2 15 vhcurveto
            141 66 hlineto
            hintmask 11110000
            -156 hlineto
            -10 36 -10 35 37 vvcurveto
            68 38 43 66 41 29 -20 -30 25 vhcurveto
            57 56 rlineto
            46 -38 -50 31 -72 hhcurveto
            -115 -79 -73 -117 -37 12 -37 12 -38 hvcurveto
            -15 hlineto
            -67 -4 rlineto
            -62 vlineto
            hintmask 11101000
            100 hlineto
            3 -16 2 -15 -16 vvcurveto
            -74 -40 -64 -66 -34 vhcurveto
            -62 414 86 vlineto
            endchar
          </CharString>
          <CharString index="22">
            575 rmoveto
            102 hlineto
            112 137 -41 38 -120 -107 rlineto
            -4 hlineto
            -120 107 -41 -38 rlineto
            return
          </CharString>
          <CharString index="23">
            -250 -152 56 343 62 343 56 hstemhm
            33 100 -23 87 hintmask 11101000
            230 39 callgsubr
            50 56 -24 hlineto
            -50 -14 23 62 hvcurveto
            59 5 51 66 vvcurveto
            67 -18 32 -46 12 vhcurveto
            4 vlineto
            46 12 18 31 68 66 -5 52 58 vvcurveto
            62 14 23 50 vhcurveto
            24 56 -50 hlineto
            -82 -38 -31 -105 hvcurveto
            -72 9 -48 -67 vvcurveto
            hintmask 11110000
            -37 -19 -38 -67 -1 vhcurveto
            -62 vlineto
            hintmask 11101000
            67 -1 19 -38 -38 -66 -9 -48 -72 vvcurveto
            -105 38 -31 82 vhcurveto
            endchar
          </CharString>
          <CharString index="24">
            -59 65 83 323 83 hstemhm
            61 99 106 60 hintmask 00000000
            hintmask 11110000
            464 127 rmoveto
            -43 64 -25 -21 -32 -19 -38 -3 rlinecurve
            323 vlineto
            30 -3 26 -13 25 -22 48 63 rcurveline
            -31 30 -42 24 -56 4 rrcurveto
            100 -60 -103 vlineto
            -116 -18 -89 -85 -139 vvcurveto
            -142 83 -86 122 -15 vhcurveto
            -101 60 100 vlineto
            50 5 49 22 39 35 rrcurveto
            -304 182 rmoveto
            79 39 58 67 18 vhcurveto
            -311 vlineto
            -67 18 -39 58 80 vvcurveto
            endchar
          </CharString>
          <CharString index="25">
            -216 381 58 112 45 65 60 hstem
            35 72 123 74 vstem
            134 381 rmoveto
            40 33 20 24 26 hvcurveto
            4 hlineto
            8 -36 rlineto
            59 194 hlineto
            89 -39 49 -81 -52 -49 -21 -22 -36 vhcurveto
            27 -50 rlineto
            17 29 36 16 33 hhcurveto
            43 14 -26 -39 1 hvcurveto
            -136 -13 -59 -36 -70 vvcurveto
            -56 39 -40 60 vhcurveto
            24 58 rmoveto
            -32 -19 14 30 33 31 25 92 10 hvcurveto
            -76 vlineto
            -24 -25 -23 -12 -24 hhcurveto
            endchar
          </CharString>
          <CharString index="26">
            85 412 78 108 78 -64 64 hstemhm
            99 70 143 65 181 65 hintmask 10111100
            99 365 rmoveto
            70 247 96 64 -262 -64 96 hlineto
            213 -247 rmoveto
            65 125 hlineto
            -8 108 15 callgsubr
            68 -186 rlineto
            53 hlineto
            hintmask 11011100
            68 186 15 callgsubr
            -8 -108 rlineto
            -125 65 311 -83 vlineto
            -44 -111 -26 -75 rlineto
            -4 hlineto
            -26 75 rlineto
            hintmask 10111100
            -45 111 18 callgsubr
          </CharString>
          <CharString index="27">
            695 15 callsubr
            90 15 callgsubr
            108 -90 44 30 -100 112 rlineto
            -108 hlineto
            -100 -112 rlineto
            return
          </CharString>
          <CharString index="28">
            -129 -193 83 468 143 hstemhm
            46 98 20 136 hintmask 00000000
            hintmask 11110000
            232 358 rmoveto
            38 30 30 42 41 -30 30 -38 -38 -30 -30 -41 -42 -26 callsubr
            hintmask 11100000
            -12 -551 rmoveto
            74 59 36 49 44 hvcurveto
            -57 52 rlineto
            -33 -30 -36 -21 -42 hhcurveto
            -57 -31 37 50 97 155 57 -21 150 hvcurveto
            -89 hlineto
            15 -133 -158 -49 -129 vvcurveto
            -104 71 -59 103 vhcurveto
            endchar
          </CharString>
          <CharString index="29">
            -12 rmoveto
            64 hlineto
            359 679 rlineto
            -64 hlineto
            return
          </CharString>
          <CharString index="30">
            86 hmoveto
            175 hlineto
            196 114 117 213 213 -114 112 -201 hvcurveto
            -170 hlineto
            102 -572 rmoveto
            489 61 vlineto
            141 76 -79 -163 -163 -76 -84 -141 hvcurveto
            return
          </CharString>
          <CharString index="31">
            -59 551 86 hstem
            172 103 vstem
            172 hmoveto
            103 hlineto
            11 249 28 138 150 188 rrcurveto
            62 -420 -86 308 vlineto
            -124 -172 -45 -147 -11 -232 rrcurveto
            endchar
          </CharString>
          <CharString index="32">
            573 rmoveto
            164 154 -70 67 -145 -171 rlineto
            return
          </CharString>
          <CharString index="33">
            -59 155 54 62 54 312 -20 hstem
            202 101 vstem
            202 hmoveto
            101 155 160 54 -160 62 160 54 -136 hlineto
            159 312 rlineto
            -102 hlineto
            -70 -160 -19 -43 -18 -44 -21 -47 -6 callsubr
            -20 46 -18 44 -19 44 -70 160 rcurveline
            -105 hlineto
            158 -312 rlineto
            -135 -54 159 -62 -159 -54 159 hlineto
            endchar
          </CharString>
          <CharString index="34">
            rmoveto
            274 68 -274 hlineto
            return
          </CharString>
          <CharString index="35">
            -59 0 83 440 114 hstem
            220 101 vstem
            76 hmoveto
            373 83 -128 554 -76 hlineto
            -38 -23 -43 -16 -61 -11 rrcurveto
            -64 117 -440 -144 vlineto
            endchar
          </CharString>
          <CharString index="36">
            -42 67 rlineto
            -25 -29 -37 -20 -41 hhcurveto
            -82 -57 69 104 104 59 70 83 34 27 -15 -24 27 hvcurveto
            50 66 rlineto
            31 -35 -45 25 -63 hhcurveto
            -128 -113 -94 -163 return
          </CharString>
          <CharString index="37">
            77 hmoveto
            99 126 hlineto
            83 96 133 -222 rlineto
            110 hlineto
            -185 291 166 198 rlineto
            -111 hlineto
            -193 -239 rlineto
            -3 459 -99 hlineto
            return
          </CharString>
          <CharString index="38">
            305 -12 rmoveto
            110 100 97 168 150 -69 98 -124 -52 -52 -27 -37 -43 hvcurveto
            3 84 rlineto
            188 -101 -709 80 vlineto
            9 51 rlineto
            3 hlineto
            -40 42 49 -23 45 hhcurveto
            -20 84 rmoveto
            -30 -39 12 33 -38 hvcurveto
            240 vlineto
            40 41 38 16 callsubr
            return
          </CharString>
          <CharString index="39">
            -73 callsubr
            endchar
          </CharString>
          <CharString index="40">
            rmoveto
            19 12 17 17 -53 callsubr
            -17 13 -17 19 hvcurveto
            return
          </CharString>
          <CharString index="41">
            458 86 -332 hlineto
            329 508 rlineto
            61 -425 -86 299 vlineto
            -329 -508 rlineto
            return
          </CharString>
          <CharString index="42">
            rlineto
            84 vlineto
            -148 -6 6 164 rlineto
            -84 hlineto
            6 -164 -148 6 rlineto
            -84 vlineto
            148 return
          </CharString>
          <CharString index="43">
            325 rmoveto
            -1 32 rlineto
            125 -4 -69 80 -126 hhcurveto
            -288 hlineto
            10 -82 58 -490 247 9 181 81 -8 245 rlinecurve
            -326 -238 rmoveto
            -45 393 rlineto
            163 hlineto
            65 37 -53 -73 hvcurveto
            -27 vlineto
            6 -170 -86 -58 -140 -12 rrcurveto
            return
          </CharString>
          <CharString index="44">
            -198 381 60 220 60 hstem
            28 76 158 76 vstem
            183 381 rmoveto
            83 72 63 107 108 -72 62 -83 -83 -72 -62 -108 -107 72 -63 83 hvcurveto
            60 vmoveto
            -50 -29 45 65 66 29 44 50 51 28 -44 -66 -65 -28 -45 -51 hvcurveto
            endchar
          </CharString>
          <CharString index="45">
            -250 -177 910 hstem
            79 83 vstem
            211 -177 rmoveto
            63 28 rlineto
            -76 128 -36 150 149 vvcurveto
            149 36 150 76 128 vhcurveto
            -63 28 rlineto
            -83 -135 -49 -144 -176 vvcurveto
            -176 49 -144 83 -135 vhcurveto
            endchar
          </CharString>
          <CharString index="46">
            -224 420 53 159 53 hstem
            40 58 146 58 vstem
            171 420 rmoveto
            71 60 53 79 80 -60 53 -71 -71 -60 -53 -80 -79 60 -53 71 hvcurveto
            53 vmoveto
            -43 -30 33 46 47 30 33 43 43 30 -33 -47 -46 -30 -33 -43 hvcurveto
            endchar
          </CharString>
          <CharString index="47">
            111.5 vstem
            241 -1 rmoveto
            170 5 86 117 10 191 14 178 rcurveline
            4 72 rlineto
            -471 -82 356 hlineto
            -15 -193 -11 -159 -63 -37 -90 -9 rlinecurve
            -179 -282 rmoveto
            107 550 -92 hlineto
            -15 -68 rlineto
            return
          </CharString>
          <CharString index="48">
            -250 -177 910 hstem
            153 83 vstem
            104 -177 rmoveto
            83 135 49 144 176 vvcurveto
            176 -49 144 -83 135 vhcurveto
            -63 -28 rlineto
            76 -128 36 -150 -149 vvcurveto
            -149 -36 -150 -76 -128 vhcurveto
            endchar
          </CharString>
          <CharString index="49">
            107 vstem
            353 hmoveto
            -34 215 rlineto
            183 vlineto
            92 -32 57 -80 12 vhcurveto
            -99 15 -14 -81 63 -10 rlineto
            43 -7 12 -23 -57 vvcurveto
            -172 vlineto
            -37 -74 -61 -47 -86 -34 40 -85 rcurveline
            77 27 48 47 35 66 23 -124 rcurveline
            return
          </CharString>
          <CharString index="50">
            63 42 46 83 4 hvcurveto
            -67 5 rlineto
            -41 -5 -16 -20 -24 -43 -28 67 -74 hhcurveto
            return
          </CharString>
          <CharString index="51">
            573 rmoveto
            51 50 -145 171 -70 -67 rlineto
            return
          </CharString>
          <CharString index="52">
            -19 -13 -18 -16 -18 13 -15 19 19 12 15 18 17 -12 17 -19 hvcurveto
            endchar
          </CharString>
          <CharString index="53">
            rmoveto
            -104 callgsubr
            return
          </CharString>
          <CharString index="54">
            17 -12 16 -19 -77 callgsubr
            return
          </CharString>
          <CharString index="55">
            -136 712 -20 hstem
            181 67 vstem
            141 400 rmoveto
            74 86 73 -86 46 33 -57 97 100 43 -17 53 -107 -24 -10 110 rlineto
            -57 hlineto
            -10 -111 -106 25 -18 -53 100 -43 -57 -97 rlineto
            endchar
          </CharString>
          <CharString index="56">
            -46 -33 47 101 101 33 45 46 46 33 -45 -101 -101 -33 -47 -46 hvcurveto
            return
          </CharString>
          <CharString index="57">
            79 151 70 134 79 return
          </CharString>
          <CharString index="58">
            94 551 rmoveto
            -62 vlineto
            -66 -5 rlineto
            -76 66 -408 101 408 99 81 -99 63 vlineto
            60 22 28 43 17 19 -4 -8 18 vhcurveto
            20 76 rlineto
            9 -22 -31 8 -33 hhcurveto
            -108 -46 -69 -101 hvcurveto
            return
          </CharString>
          <CharString index="59">
            95 48 56 75 8 hvcurveto
            -59 10 rlineto
            -45 -8 -30 -34 -54 hhcurveto
            -53 -31 34 45 -8 hvcurveto
            -59 -10 rlineto
            return
          </CharString>
          <CharString index="60">
            -262 -141 rmoveto
            -92 callsubr
            -53 callsubr
            vhcurveto
            endchar
          </CharString>
          <CharString index="61">
            102 248 hlineto
            197 407 rlineto
            -106 hlineto
            -77 -175 -19 -48 -22 -46 -21 -49 -6 callsubr
            -22 49 -19 46 -20 48 -77 175 rcurveline
            -109 hlineto
            197 -407 rlineto
            endchar
          </CharString>
          <CharString index="62">
            692 rmoveto
            45 51 -150 132 -56 -67 rlineto
            return
          </CharString>
          <CharString index="63">
            -13 187 81 306 81 return
          </CharString>
          <CharString index="64">
            -212 121 return
          </CharString>
          <CharString index="65">
            rmoveto
            -16 callgsubr
            -16 callsubr
            hvcurveto
            60 vmoveto
            -51 callsubr
            return
          </CharString>
          <CharString index="66">
            86 hmoveto
            102 298 282 -298 102 655 -102 -268 -282 268 -102 hlineto
            return
          </CharString>
          <CharString index="67">
            vstem
            204 hmoveto
            120 hlineto
            205 655 rlineto
            -104 hlineto
            -97 -340 -21 -75 -16 -64 -23 -75 -6 callsubr
            -23 75 -15 64 -22 75 -98 340 rcurveline
            -108 hlineto
            return
          </CharString>
          <CharString index="68">
            -230 rmoveto
            111 5 63 29 61 vvcurveto
            41 -27 20 -47 11 vhcurveto
            29 66 rlineto
            -63 hlineto
            -45 -93 rlineto
            58 -8 19 -14 -24 vvcurveto
            -29 -25 -14 -82 -5 vhcurveto
            endchar
          </CharString>
          <CharString index="69">
            581 -54 callsubr
            return
          </CharString>
          <CharString index="70">
            -52 -220 67 142 81 85 65 193 76 -59 71 return
          </CharString>
          <CharString index="71">
            rmoveto
            59 hlineto
            20 176 3 104 rlineto
            -105 hlineto
            3 -104 rlineto
            return
          </CharString>
          <CharString index="72">
            rmoveto
            -53 callsubr
            -92 callsubr
            vhcurveto
            endchar
          </CharString>
          <CharString index="73">
            rmoveto
            -101 callsubr
            return
          </CharString>
          <CharString index="74">
            vmoveto
            -27 callgsubr
            -61 10 rlineto
            -49 -7 -30 -48 -62 hhcurveto
            -62 -30 5 callgsubr
          </CharString>
          <CharString index="75">
            82 rmoveto
            293 vlineto
            -43 callgsubr
            -215 -82 188 hlineto
            -27 callsubr
            -298 -278 -82 278 vlineto
            176 82 hlineto
            return
          </CharString>
          <CharString index="76">
            -54 -12 80 351 82 return
          </CharString>
          <CharString index="77">
            rmoveto
            101 489 -101 hlineto
            endchar
          </CharString>
          <CharString index="78">
            101.5 -35.5 63 91.5 107 return
          </CharString>
          <CharString index="79">
            263 67 150 82 hstem
            return
          </CharString>
          <CharString index="80">
            55 35 -26 -74 hvcurveto
            return
          </CharString>
          <CharString index="81">
            30 -30 38 hvcurveto
            return
          </CharString>
          <CharString index="82">
            hmoveto
            269 398 hlineto
            92 -45 57 -80 12 vhcurveto
            -104 15 -14 -81 68 -10 rlineto
            43 -6 25 -21 -60 vvcurveto
            -314 -162 vlineto
            return
          </CharString>
          <CharString index="83">
            521 -1 callsubr
            588 rmoveto
            -77 callgsubr
            -17 13 -17 19 19 12 17 17 -52 callgsubr
            endchar
          </CharString>
          <CharString index="84">
            -33 -23 -24 -32 -31 23 -25 33 -9 callsubr
            return
          </CharString>
          <CharString index="85">
            hmoveto
            107 363 hlineto
            36 5 47 18 34 vhcurveto
            return
          </CharString>
          <CharString index="86">
            -94 -163 -162 return
          </CharString>
          <CharString index="87">
            107 vstem
            338 -200 rmoveto
            107 575 hlineto
            -43 callgsubr
            -227 -82 200 hlineto
            -27 callsubr
            return
          </CharString>
          <CharString index="88">
            -62 -43 -45 -84 -4 hvcurveto
            67 -5 rlineto
            41 4 18 20 23 hhcurveto
            return
          </CharString>
          <CharString index="89">
            567 rmoveto
            102 167 -70 33 -87 -175 rlineto
            214 -25 rmoveto
            102 167 -70 33 -87 -175 rlineto
            endchar
          </CharString>
          <CharString index="90">
            107 445 hlineto
            -44 callgsubr
            return
          </CharString>
          <CharString index="91">
            -91 -62 -75 -131 -132 62 -76 91 return
          </CharString>
          <CharString index="92">
            438 74 -438 hlineto
            return
          </CharString>
          <CharString index="93">
            -84 callgsubr
            endchar
          </CharString>
          <CharString index="94">
            86 -12 89 578 -20 hstem
            83 102 285 98 vstem
            return
          </CharString>
          <CharString index="95">
            598 -73 callsubr
            return
          </CharString>
          <CharString index="96">
            235 218 68 hstem
            42 716 vstem
            42 218 rmoveto
            716 68 -716 hlineto
            endchar
          </CharString>
          <CharString index="97">
            84 345 84 208 -20 return
          </CharString>
          <CharString index="98">
            hvcurveto
            200 hmoveto
            -98 callgsubr
            return
          </CharString>
          <CharString index="99">
            rmoveto
            -36 -26 -25 -35 -36 26 -25 36 36 26 25 36 35 -26 25 -36 hvcurveto
            endchar
          </CharString>
          <CharString index="100">
            112 88 112 return
          </CharString>
          <CharString index="101">
            rlinecurve
            -4 hlineto
            return
          </CharString>
          <CharString index="102">
            -237 301 vlineto
            -187 -480 rlineto
            107 hlineto
            187 473 rlineto
            89 vlineto
            return
          </CharString>
          <CharString index="103">
            102 655 23 callsubr
          </CharString>
          <CharString index="104">
            -18 14 -15 18 19 12 15 18 17 -12 return
          </CharString>
          <CharString index="105">
            rmoveto
            -4 callsubr
          </CharString>
          <CharString index="106">
            67 13 callsubr
            return
          </CharString>
          <CharString index="107">
            480 82 hstem
            return
          </CharString>
          <CharString index="108">
            hstemhm
            42 86 -69 96 -86 83 return
          </CharString>
          <CharString index="109">
            14 callsubr
            360 105 vstem
            return
          </CharString>
          <CharString index="110">
            -5 -12 84 345 72 -72 84 hstemhm
            45 104 233 101 hintmask 10111000
            return
          </CharString>
          <CharString index="111">
            vstem
            39 767 rmoveto
            105 108 -105 109 -25 -27 63 -63 rlineto
            return
          </CharString>
          <CharString index="112">
            -211 15 callsubr
            38 71 102 hvcurveto
            return
          </CharString>
          <CharString index="113">
            48 49 -7 hvcurveto
            return
          </CharString>
          <CharString index="114">
            hstem
            86 102 return
          </CharString>
          <CharString index="115">
            6 callsubr
            -53 callgsubr
            return
          </CharString>
          <CharString index="116">
            -85 85 -44 118 vhcurveto
            return
          </CharString>
          <CharString index="117">
            208 -20 39 callsubr
            return
          </CharString>
          <CharString index="118">
            -45 -28 -26 -38 -41 vvcurveto
            return
          </CharString>
          <CharString index="119">
            42 29 -78 69 hhcurveto
            return
          </CharString>
          <CharString index="120">
            hstem
            32 63 vstem
            64 return
          </CharString>
          <CharString index="121">
            hstem
            50 105 return
          </CharString>
          <CharString index="122">
            rmoveto
            108 return
          </CharString>
          <CharString index="123">
            2 callgsubr
            -115 -54 -64 -72 hvcurveto
            return
          </CharString>
          <CharString index="124">
            105 -12 89 501 89 2 callsubr
            return
          </CharString>
          <CharString index="125">
            -176 68 return
          </CharString>
          <CharString index="126">
            33 callgsubr
            145 63 131 63 vstem
            136 return
          </CharString>
          <CharString index="127">
            hstem
            43 95 239 88 vstem
            return
          </CharString>
          <CharString index="128">
            858 36 hstem
            return
          </CharString>
          <CharString index="129">
            61 198 61 return
          </CharString>
          <CharString index="130">
            -102 hlineto
            endchar
          </CharString>
          <CharString index="131">
            56 -12.04 84.39 return
          </CharString>
          <CharString index="132">
            43 28 -67 74 hhcurveto
            return
          </CharString>
          <CharString index="133">
            rmoveto
            120 return
          </CharString>
          <CharString index="134">
            vstem
            -39 768 rmoveto
            25 24 -62 66 rlineto
            return
          </CharString>
          <CharString index="135">
            -50 callgsubr
            7 callsubr
            return
          </CharString>
          <CharString index="136">
            40 callgsubr
            45 104 return
          </CharString>
          <CharString index="137">
            -230 46 115 -21 return
          </CharString>
          <CharString index="138">
            15 callsubr
            hlineto
            return
          </CharString>
          <CharString index="139">
            74 158 74 return
          </CharString>
          <CharString index="140">
            105 57 -33 -74 -80 -59 -37 -103 hvcurveto
            return
          </CharString>
          <CharString index="141">
            hhcurveto
            110 100 97 167 151 return
          </CharString>
          <CharString index="142">
            hhcurveto
            56 26 -34 -85 hvcurveto
            -295 101 return
          </CharString>
          <CharString index="143">
            0 82 181 67 150 82 hstem
            return
          </CharString>
          <CharString index="144">
            -29 -87 -86 -50 -40 -105 hvcurveto
            endchar
          </CharString>
          <CharString index="145">
            582 rmoveto
            return
          </CharString>
          <CharString index="146">
            hstemhm
            77 101 return
          </CharString>
          <CharString index="147">
            148 -6 rlineto
            84 vlineto
            -148 return
          </CharString>
          <CharString index="148">
            90 142 -20 hstem
            160 77 return
          </CharString>
        <CharString name=".notdef">
          99 0 68 523 69 hstem
          86 75 341 76 vstem
          86 hmoveto
          492 660 -492 hlineto
          244 -265 rmoveto
          -48 94 -56 102 rlineto
          211 hlineto
          -56 -102 -47 -94 rlineto
          -173 -272 rmoveto
          436 vlineto
          118 -219 rlineto
          223 -217 rmoveto
          -117 217 117 219 rlineto
          -286 -491 rmoveto
          64 116 50 101 15 callgsubr
          49 -101 63 -116 rlineto
          endchar
        </CharString>
        <CharString name="A">
          -44 callsubr
          hstem
          0 552 vstem
          444 hmoveto
          -106 callsubr
        </CharString>
        <CharString name="AE">
          264 0 86 93 81 39 86 184 86 -79 79 hstemhm
          397 102 hintmask 11110100
          499 86 rmoveto
          213 226 86 -226 184 270 86 -433 vlineto
          -334 -655 rlineto
          107 hlineto
          90 179 rlineto
          198 -179 382 86 hlineto
          -540 174 rmoveto
          55 110 rlineto
          hintmask 11101100
          33 67 33 70 33 69 rrcurveto
          4 -316 hlineto
          endchar
        </CharString>
        <CharString name="Aacute">
          -44 callsubr
          hstem
          0 552 vstem
          420 808 rmoveto
          -56 67 -150 -132 45 -51 rlineto
          185 -692 rmoveto
          -106 callsubr
        </CharString>
        <CharString name="Abreve">
          -44 callsubr
          48 62 hstem
          366 59 vstem
          274 703 rmoveto
          -48 callsubr
          -75 9 48 -56 94 hhcurveto
          170 -703 rmoveto
          -106 callsubr
        </CharString>
        <CharString name="Acircumflex">
          -44 callsubr
          130 52 hstem
          0 552 vstem
          272 785 rmoveto
          4 hlineto
          108 -90 44 30 -100 112 rlineto
          -108 hlineto
          -100 -112 44 -30 rlineto
          280 -695 rmoveto
          -106 callsubr
        </CharString>
        <CharString name="Adieresis">
          -44 callsubr
          56 110 hstem
          114 13 callgsubr
          vstem
          169 -101 callgsubr
          65 -711 rmoveto
          -106 callsubr
        </CharString>
        <CharString name="Agrave">
          -44 callsubr
          hstem
          0 552 vstem
          334 743 rmoveto
          -150 132 -56 -67 161 -116 rlineto
          155 -692 rmoveto
          -106 callsubr
        </CharString>
        <CharString name="Amacron">
          -44 callsubr
          76 68 hstemhm
          135 278 hintmask 00000000
          hintmask 11110000
          413 799 rmoveto
          -278 -68 278 hlineto
          31 -731 rmoveto
          -106 callsubr
        </CharString>
        <CharString name="Aring">
          -44 callsubr
          43 42 102 42 hstem
          172 53 97 54 vstem
          274 698 rmoveto
          59 43 37 56 57 -43 36 -59 -59 -43 -36 -57 -56 43 -37 59 hvcurveto
          144 vmoveto
          26 22 -19 -32 -32 -22 -19 -26 -27 -22 19 32 32 22 19 27 hvcurveto
          170 -842 rmoveto
          -106 callsubr
        </CharString>
        <CharString name="Atilde">
          -44 callsubr
          49 12 callgsubr
          91 67 232 67 hintmask 11011110
          203 771 rmoveto
          25 callsubr
          hintmask 11100110
          -57 callsubr
          hintmask 11011110
          -19 callsubr
          241 -771 rmoveto
          -106 callsubr
        </CharString>
        <CharString name="B">
          28 0 30 callgsubr
          231 100 -64 100 hintmask 11110100
          -5 callgsubr
          hintmask 11111000
          -41 callgsubr
          hintmask 11110100
          33 callsubr
          endchar
        </CharString>
        <CharString name="Bethb">
          -25 endchar
        </CharString>
        <CharString name="C">
          9 -12 20 callgsubr
          vstem
          341 -12 -87 callsubr
        </CharString>
        <CharString name="Ccaron">
          9 -20 callgsubr
          38 52 14 callsubr
          vstem
          279 -75 callgsubr
          162 -829 -87 callsubr
        </CharString>
        <CharString name="Ccedilla">
          9 -12 20 callgsubr
          vstem
          341 -12 -87 callsubr
        </CharString>
        <CharString name="D">
          56 0 83 489 83 7 callsubr
          278 105 vstem
          -77 callsubr
          endchar
        </CharString>
        <CharString name="E">
          -32 0 28 callsubr
          vstem
          86 hmoveto
          -89 callsubr
          endchar
        </CharString>
        <CharString name="Eacute">
          -32 0 28 callsubr
          vstem
          271 -69 callgsubr
          -140 -743 rmoveto
          -89 callsubr
          endchar
        </CharString>
        <CharString name="Ebreve">
          -32 0 -50 callgsubr
          48 62 7 callsubr
          190 59 vstem
          286 703 rmoveto
          -48 callsubr
          -75 9 48 -56 94 hhcurveto
          -200 -703 rmoveto
          -89 callsubr
          endchar
        </CharString>
        <CharString name="Ecircumflex">
          -32 0 -50 callgsubr
          130 52 7 callsubr
          vstem
          176 -80 callsubr
          -46 -725 rmoveto
          -89 callsubr
          endchar
        </CharString>
        <CharString name="Edieresis">
          -32 0 -50 callgsubr
          56 110 hstemhm
          86 102 -62 13 callgsubr
          hintmask 00000000
          hintmask 11110110
          181 -101 callgsubr
          hintmask 11101000
          -305 -711 rmoveto
          -89 callsubr
          endchar
        </CharString>
        <CharString name="Egrave">
          -32 0 28 callsubr
          vstem
          301 -45 callsubr
          -54 -808 rmoveto
          -89 callsubr
          endchar
        </CharString>
        <CharString name="Emacron">
          -32 0 -50 callgsubr
          76 68 hstemhm
          86 102 -41 278 hintmask 00000000
          hintmask 11110100
          147 -34 callgsubr
          hintmask 11111000
          -61 -799 rmoveto
          -89 callsubr
          endchar
        </CharString>
        <CharString name="Eogonek">
          -32 -215 69 146 28 callsubr
          124 77 vstem
          413 -215 rmoveto
          29 37 13 17 21 hvcurveto
          -26 53 rlineto
          -8 -11 -13 -6 -15 hhcurveto
          -23 -23 14 30 50 45 47 45 5 hvcurveto
          4 86 -295 213 241 86 -241 184 285 86 -387 -655 302 hlineto
          -36 -23 -40 -47 -56 vvcurveto
          -58 45 -31 56 vhcurveto
          endchar
        </CharString>
        <CharString name="Eth">
          79 0 83 232 54 203 83 hstem
          109 102 278 105 vstem
          279 655 rmoveto
          -170 -286 hlineto
          -78 -4 rlineto
          -50 78 -315 175 vlineto
          196 114 117 213 213 -114 112 -201 hvcurveto
          -7 -572 rmoveto
          -61 232 142 54 -142 203 61 hlineto
          141 76 -79 -163 -163 -76 -84 -141 hvcurveto
          endchar
        </CharString>
        <CharString name="Euro">
          -105 callgsubr
        </CharString>
        <CharString name="Euro.001">
          -105 callgsubr
        </CharString>
        <CharString name="Euro.heb">
          -25 endchar
        </CharString>
        <CharString name="Euro.heb.001">
          -25 endchar
        </CharString>
        <CharString name="Euro.lat">
          -105 callgsubr
        </CharString>
        <CharString name="Euro.lat.001">
          -105 callgsubr
        </CharString>
        <CharString name="F">
          -62 282 86 201 86 7 callsubr
          vstem
          86 hmoveto
          102 282 243 86 -243 201 286 86 -388 hlineto
          endchar
        </CharString>
        <CharString name="G">
          -11 callgsubr
          14 callsubr
          312 92 vstem
          353 -12 rmoveto
          -95 callgsubr
          -7 callgsubr
          hvcurveto
          endchar
        </CharString>
        <CharString name="Gcaron">
          -11 callgsubr
          38 52 14 callsubr
          312 92 vstem
          303 -75 callgsubr
          150 -829 rmoveto
          -95 callgsubr
          -7 callgsubr
          hvcurveto
          endchar
        </CharString>
        <CharString name="Gdotaccent">
          -11 callgsubr
          43 121 14 callsubr
          137 130 45 92 vstem
          357 710 rmoveto
          1 callgsubr
          -4 -722 rmoveto
          -95 callgsubr
          -7 callgsubr
          hvcurveto
          endchar
        </CharString>
        <CharString name="H">
          93 298 89 268 -20 7 callsubr
          282 102 vstem
          -41 callsubr
          endchar
        </CharString>
        <CharString name="Hbar">
          129 298 89 103 54 -54 165 hstemhm
          106 102 282 102 hintmask 00000000
          hintmask 11011000
          664 544 rmoveto
          -72 hlineto
          27 callgsubr
          -282 vlineto
          27 callgsubr
          vlineto
          -76 -5 rlineto
          hintmask 10111000
          -49 76 -490 102 298 282 -298 102 490 72 vlineto
          -174 -103 rmoveto
          -282 103 282 hlineto
          endchar
        </CharString>
        <CharString name="I">
          3 callgsubr
          7 callsubr
          vstem
          86 hmoveto
          -4 callsubr
        </CharString>
        <CharString name="Iacute">
          3 callgsubr
          7 callsubr
          vstem
          122 -69 callgsubr
          9 -743 -2 callsubr
        </CharString>
        <CharString name="Icircumflex">
          3 callgsubr
          150 52 7 callsubr
          vstem
          27 -80 callsubr
          103 -725 -2 callsubr
        </CharString>
        <CharString name="Idieresis">
          3 callgsubr
          76 110 hstemhm
          -23 110 -1 102 -1 110 6 callgsubr
          32 -101 callgsubr
          hintmask 11010000
          -156 -711 -2 callsubr
        </CharString>
        <CharString name="Igrave">
          3 callgsubr
          7 callsubr
          vstem
          152 -45 callsubr
          95 -808 -2 callsubr
        </CharString>
        <CharString name="Imacron">
          3 callgsubr
          96 68 7 callsubr
          vstem
          -2 -34 callgsubr
          88 -799 -2 callsubr
        </CharString>
        <CharString name="J">
          -77 -12 89 578 -20 hstem
          303 102 vstem
          216 -12 rmoveto
          133 56 95 117 hvcurveto
          455 -102 -446 vlineto
          -96 -33 -36 -65 -43 -36 21 50 -28 vhcurveto
          -71 -51 rlineto
          -72 40 61 -37 88 hhcurveto
          endchar
        </CharString>
        <CharString name="K">
          24 21 callgsubr
          86 102 vstem
          -71 callgsubr
          endchar
        </CharString>
        <CharString name="L">
          -70 0 86 569 -20 7 callsubr
          vstem
          86 hmoveto
          380 86 -278 569 23 callsubr
        </CharString>
        <CharString name="Lslash">
          -66 0 86 569 -20 hstem
          92 102 vstem
          194 86 rmoveto
          192 vlineto
          206 110 -36 63 -170 -92 rlineto
          296 -102 -342 vlineto
          -103 -57 36 -63 67 38 rlineto
          -231 380 86 vlineto
          endchar
        </CharString>
        <CharString name="M">
          172 64 126 338 127 hstem
          86 92 379 94 vstem
          86 hmoveto
          92 326 hlineto
          59 -8 84 -5 59 vhcurveto
          4 hlineto
          52 -151 115 -313 rlineto
          63 hlineto
          115 313 52 151 15 callgsubr
          -5 -59 -8 -84 -59 vvcurveto
          -326 94 655 -118 vlineto
          -118 -333 -15 -43 -13 -45 -15 -44 -6 callsubr
          -15 44 -14 45 -15 43 -120 333 rcurveline
          -118 hlineto
          endchar
        </CharString>
        <CharString name="N">
          28 callgsubr
          hstemhm
          86 97 286 97 hintmask 10111000
          86 hmoveto
          97 311 hlineto
          hintmask 11011000
          -46 callgsubr
        </CharString>
        <CharString name="Ntilde">
          28 callgsubr
          69 12 callgsubr
          86 97 -37 67 232 67 -43 97 hintmask 0000000000000000
          hintmask 1011001010000000
          403 704 rmoveto
          -57 callsubr
          hintmask 1010110101000000
          -19 callsubr
          hintmask 1011001010000000
          25 callsubr
          hintmask 1100111001000000
          -317 -704 rmoveto
          97 311 hlineto
          -46 callgsubr
        </CharString>
        <CharString name="O">
          17 callsubr
          335 -12 rmoveto
          -107 callsubr
          endchar
        </CharString>
        <CharString name="OE">
          289 0 -50 callgsubr
          -83 83 hstemhm
          50 105 268 102 hintmask 11101100
          370 hmoveto
          434 86 -279 213 225 86 -225 184 269 86 -419 hlineto
          -200 -125 -112 -213 -213 125 -117 195 hvcurveto
          12 83 rmoveto
          -145 -82 83 164 hvcurveto
          hintmask 11011100
          164 82 78 145 vhcurveto
          41 -489 hlineto
          endchar
        </CharString>
        <CharString name="Oacute">
          17 callsubr
          320 -69 callgsubr
          60 -755 rmoveto
          -107 callsubr
          endchar
        </CharString>
        <CharString name="Obreve">
          -31 callgsubr
          36 62 hstemhm
          50 105 272 59 29 105 hintmask 11110100
          335 703 rmoveto
          hintmask 11111100
          -48 callsubr
          hintmask 11110100
          -75 9 48 -56 94 hhcurveto
          -715 vmoveto
          -107 callsubr
          endchar
        </CharString>
        <CharString name="Ocircumflex">
          -31 callgsubr
          118 52 2 callsubr
          225 -80 callsubr
          154 -737 rmoveto
          -107 callsubr
          endchar
        </CharString>
        <CharString name="Odieresis">
          -31 callgsubr
          44 110 hstemhm
          50 105 20 13 callgsubr
          20 105 hintmask 00000000
          hintmask 11111110
          230 -101 callgsubr
          hintmask 11010010
          -105 -723 rmoveto
          -107 callsubr
          endchar
        </CharString>
        <CharString name="Ograve">
          17 callsubr
          350 -45 callsubr
          146 -820 rmoveto
          -107 callsubr
          endchar
        </CharString>
        <CharString name="Omacron">
          -31 callgsubr
          64 68 14 callsubr
          41 278 41 105 vstem
          196 -34 callgsubr
          139 -811 rmoveto
          -107 callsubr
          endchar
        </CharString>
        <CharString name="Oslash">
          -31 callgsubr
          0 -20 hstemhm
          52 105 360 105 hintmask 00000000
          hintmask 10111000
          631 646 rmoveto
          hintmask 11011000
          -55 42 -63 -81 rlineto
          39 -47 -60 21 -69 hhcurveto
          -168 -117 -126 -211 -95 24 -78 41 -58 hvcurveto
          -70 -90 55 -42 63 80 rlineto
          -38 46 59 -21 67 hhcurveto
          168 117 131 211 hvcurveto
          hintmask 10111000
          92 -22 77 -40 56 vhcurveto
          -403 -225 rmoveto
          hintmask 11011000
          154 71 94 109 46 40 -17 -31 30 vhcurveto
          -269 -345 rlineto
          hintmask 10111000
          -17 39 -10 50 56 vvcurveto
          360 hmoveto
          hintmask 11011000
          -154 -71 -99 -109 -45 -38 17 30 -30 vhcurveto
          268 344 rlineto
          hintmask 10111000
          16 -38 9 -46 -54 vvcurveto
          endchar
        </CharString>
        <CharString name="Otilde">
          -31 callgsubr
          37 12 callgsubr
          50 105 -3 67 232 67 -3 105 hintmask 0000000000000000
          hintmask 1110010100000000
          409 704 rmoveto
          -57 callsubr
          hintmask 1101101010000000
          -19 callsubr
          hintmask 1110010100000000
          25 callsubr
          hintmask 1101110010000000
          -74 -716 rmoveto
          -107 callsubr
          endchar
        </CharString>
        <CharString name="P">
          10 249 82 242 82 7 callsubr
          245 101 vstem
          86 hmoveto
          102 249 100 hlineto
          142 104 66 142 148 -104 50 -146 hvcurveto
          -198 hlineto
          102 -324 rmoveto
          242 86 vlineto
          105 54 37 callsubr
        </CharString>
        <CharString name="Q">
          105 -170 84 664 89 2 callsubr
          621 -76 rmoveto
          -6 -18 -23 -4 -29 hhcurveto
          -66 -60 25 55 -30 hvcurveto
          135 28 90 123 185 vvcurveto
          211 -117 126 -168 -168 -117 -126 -211 -190 95 -125 142 -23 vhcurveto
          -94 40 87 -68 126 hhcurveto
          43 36 8 9 21 hvcurveto
          -485 483 rmoveto
          154 71 94 109 109 71 -94 -154 -159 -71 -99 -109 -109 -71 99 159 vhcurveto
          endchar
        </CharString>
        <CharString name="R">
          17 265 82 226 82 7 callsubr
          247 101 vstem
          559 hmoveto
          -161 278 rlineto
          83 25 55 61 101 vvcurveto
          142 -101 48 -135 vhcurveto
          -214 -655 102 265 108 hlineto
          148 -265 rlineto
          -256 573 rmoveto
          100 hlineto
          95 52 -28 -80 -79 -52 -39 -95 hvcurveto
          -100 hlineto
          endchar
        </CharString>
        <CharString name="S">
          -25 -20 callgsubr
          hstem
          70 103 226 104 vstem
          273 -12 -102 callsubr
          endchar
        </CharString>
        <CharString name="Sacute">
          -25 -20 callgsubr
          hstem
          70 103 226 104 vstem
          267 -69 callgsubr
          51 -755 -102 callsubr
          endchar
        </CharString>
        <CharString name="Scaron">
          -25 -20 callgsubr
          38 52 hstem
          70 103 226 104 vstem
          228 -75 callgsubr
          145 -829 -102 callsubr
          endchar
        </CharString>
        <CharString name="T">
          -23 569 86 hstem
          220 102 vstem
          -18 callgsubr
          endchar
        </CharString>
        <CharString name="Thorn">
          28 142 82 242 82 -82 189 hstemhm
          86 102 255 101 hintmask 10111000
          86 hmoveto
          102 142 110 hlineto
          142 104 66 142 hvcurveto
          hintmask 11011000
          148 -102 50 -144 vhcurveto
          -110 hlineto
          hintmask 10111000
          107 -102 vlineto
          102 -431 rmoveto
          242 100 vlineto
          103 52 37 callsubr
        </CharString>
        <CharString name="U">
          -13 callsubr
          326 -12 -97 callsubr
        </CharString>
        <CharString name="Uacute">
          -13 callsubr
          310 -69 callgsubr
          61 -755 -97 callsubr
        </CharString>
        <CharString name="Ucircumflex">
          86 -12 89 578 -20 150 52 hstem
          83 102 285 98 vstem
          215 -80 callsubr
          155 -737 -97 callsubr
        </CharString>
        <CharString name="Udieresis">
          86 -12 89 578 -20 76 110 hstemhm
          83 102 -20 13 callgsubr
          -15 98 hintmask 00000000
          hintmask 11101100
          220 -101 callgsubr
          hintmask 11110010
          -104 -723 -97 callsubr
        </CharString>
        <CharString name="Ugrave">
          -13 callsubr
          340 -45 callsubr
          147 -820 -97 callsubr
        </CharString>
        <CharString name="Umacron">
          86 -12 89 578 -20 96 68 hstemhm
          83 102 1 278 6 98 6 callgsubr
          186 -34 callgsubr
          hintmask 11110100
          140 -811 -97 callsubr
        </CharString>
        <CharString name="V">
          -38 0 101 554 -20 hstem
          -2 531 -40 callsubr
          endchar
        </CharString>
        <CharString name="W">
          229 0 103 413 139 0 -20 hstemhm
          20 753 hintmask 10110000
          154 hmoveto
          123 hlineto
          87 366 rlineto
          hintmask 11010000
          11 51 11 49 9 50 rrcurveto
          4 hlineto
          9 -50 10 -49 11 -51 89 -366 rcurveline
          125 hlineto
          130 655 rlineto
          -98 hlineto
          -62 -342 -11 -69 -11 -70 -12 -71 -6 callsubr
          -15 71 -15 71 -15 68 -85 342 rcurveline
          -90 hlineto
          -85 -342 -15 -69 -15 -71 -14 -70 -6 callsubr
          -11 70 -12 70 -12 70 -62 342 rcurveline
          -105 hlineto
          endchar
        </CharString>
        <CharString name="X">
          -36 21 callgsubr
          14 501 vstem
          14 hmoveto
          108 hlineto
          85 164 16 33 16 33 18 40 rlinecurve
          4 hlineto
          20 -40 17 -33 17 -33 87 -164 rcurveline
          113 hlineto
          -188 333 176 322 rlineto
          -108 hlineto
          -77 -155 -15 -30 -13 -29 -17 -39 -6 callsubr
          -20 39 -14 29 -16 30 -80 155 rcurveline
          -113 hlineto
          176 -317 rlineto
          endchar
        </CharString>
        <CharString name="Y">
          -75 21 callgsubr
          194 102 vstem
          194 hmoveto
          -46 callsubr
        </CharString>
        <CharString name="Yacute">
          -75 21 callgsubr
          194 102 vstem
          230 -69 callgsubr
          9 -743 rmoveto
          -46 callsubr
        </CharString>
        <CharString name="Ydieresis">
          -75 655 -20 76 110 hstemhm
          85 110 -1 102 -1 110 6 callgsubr
          140 -101 callgsubr
          hintmask 11010000
          -156 -711 rmoveto
          -46 callsubr
        </CharString>
        <CharString name="Z">
          -25 0 86 483 86 hstem
          42 458 vstem
          42 hmoveto
          -66 callsubr
          endchar
        </CharString>
        <CharString name="ZWJ">
          21 callsubr
          -150 34 233 34 vstem
          -150 785 rmoveto
          34 73 233 -73 34 109 -301 hlineto
          endchar
        </CharString>
        <CharString name="ZWNJ">
          767 217 hstem
          -104 207 vstem
          -81 767 rmoveto
          81 81 79 -80 24 24 -79 83 79 82 -24 25 -79 -82 -81 84 -23 -27 78 -82 -78 -83 rlineto
          endchar
        </CharString>
        <CharString name="Zcaron">
          -25 0 86 483 86 50 52 hstem
          42 458 vstem
          227 -75 callgsubr
          -85 -817 rmoveto
          -66 callsubr
          endchar
        </CharString>
        <CharString name="a">
          -13 callgsubr
          193 -12 -107 callgsubr
          endchar
        </CharString>
        <CharString name="a.sups">
          -82 callsubr
        </CharString>
        <CharString name="aacute">
          -13 callgsubr
          268 -75 callsubr
          -24 -635 -107 callgsubr
          endchar
        </CharString>
        <CharString name="abreve">
          -31 callsubr
          70 66 hstemhm
          49 98 -32 61 166 101 -69 61 hintmask 00000000
          hintmask 11101010
          275 -82 callgsubr
          hintmask 11110100
          -82 -583 -107 callgsubr
          endchar
        </CharString>
        <CharString name="acircumflex">
          -31 callsubr
          172 68 hstem
          49 98 195 101 vstem
          153 -87 callgsubr
          81 -616 -107 callgsubr
          endchar
        </CharString>
        <CharString name="acute">
          -19 26 callgsubr
          215 215 vstem
          266 -75 callsubr
          endchar
        </CharString>
        <CharString name="acutecomb">
          26 callgsubr
          -58 215 vstem
          -7 -75 callsubr
          endchar
        </CharString>
        <CharString name="acutecomb.cap">
          692 183 hstem
          -60 206 vstem
          -15 -69 callgsubr
          endchar
        </CharString>
        <CharString name="adieresis">
          -31 callsubr
          81 112 hstemhm
          49 98 -28 -7 callsubr
          -89 101 hintmask 00000000
          hintmask 11101100
          175 -98 callsubr
          hintmask 11110010
          -182 -594 -107 callgsubr
          endchar
        </CharString>
        <CharString name="ae">
          220 -12 81 149 65 136 82 -79 79 hstemhm
          55 98 191 93 223 88 hintmask 11011110
          199 -12 rmoveto
          64 65 29 58 67 hvcurveto
          -47 39 53 -40 79 hhcurveto
          64 54 22 30 45 hvcurveto
          -36 68 rlineto
          -23 -36 -34 -16 -44 hhcurveto
          -76 -60 57 92 -6 hvcurveto
          307 hlineto
          2 12 2 18 20 vvcurveto
          138 -66 95 -123 -64 -53 -36 -59 -39 vhcurveto
          58 -23 -47 37 -69 hhcurveto
          -72 -67 -32 -32 -50 hvcurveto
          hintmask 11101110
          38 -68 rlineto
          26 41 48 24 49 hhcurveto
          73 19 -51 -56 1 hvcurveto
          -200 -22 -89 -55 -106 vvcurveto
          hintmask 11011110
          -86 60 -55 84 vhcurveto
          238 295 rmoveto
          87 9 49 52 61 hhcurveto
          68 36 -51 -88 hvcurveto
          -430 -215 rmoveto
          -44 -33 21 48 56 53 36 137 18 hvcurveto
          1 -23 1 -33 6 -34 10 -24 rlinecurve
          -41 -39 -50 -24 -42 hhcurveto
          endchar
        </CharString>
        <CharString name="agrave">
          -13 callgsubr
          282 -56 callsubr
          75 -739 -107 callgsubr
          endchar
        </CharString>
        <CharString name="alphalatin">
          3 callsubr
          246 -12 rmoveto
          56 55 32 38 35 hvcurveto
          3 hlineto
          -45 9 24 -25 45 hhcurveto
          22 12 3 5 12 hvcurveto
          -1 77 rlineto
          -2 -8 -4 0 -3 hhcurveto
          -12 -8 9 23 hvcurveto
          hintmask 11011000
          386 -81 vlineto
          hintmask 10111000
          -8 -48 rlineto
          -3 hlineto
          40 -42 -40 20 -53 hhcurveto
          -109 -102 -98 -159 -162 79 -94 122 hvcurveto
          24 84 rmoveto
          -77 -44 62 111 106 56 66 69 36 35 -12 -33 37 hvcurveto
          -240 vlineto
          -41 -36 -35 -19 -41 hhcurveto
          endchar
        </CharString>
        <CharString name="amacron">
          -31 callsubr
          97 68 hstemhm
          49 98 -9 274 -70 101 6 callgsubr
          138 -12 callsubr
          hintmask 11110100
          55 -678 -107 callgsubr
          endchar
        </CharString>
        <CharString name="ampersand">
          -94 callgsubr
        </CharString>
        <CharString name="ampersand.lat">
          -94 callgsubr
        </CharString>
        <CharString name="approxequal">
          -59 142 74 8 74 64 74 8 74 hstemhm
          34 438 hintmask 10101000
          340 362 rmoveto
          -19 callgsubr
          hintmask 10111000
          -37 callgsubr
          hintmask 10101000
          56 40 -82 80 hhcurveto
          -220 vmoveto
          -19 callgsubr
          hintmask 11101000
          -37 callgsubr
          hintmask 10101000
          56 40 -82 80 hhcurveto
          endchar
        </CharString>
        <CharString name="aring">
          -31 callsubr
          56 42 116 42 hstemhm
          49 98 12 63 106 63 -49 101 hintmask 00000000
          hintmask 11111110
          275 -40 callgsubr
          hintmask 11111001
          -82 -611 -107 callgsubr
          endchar
        </CharString>
        <CharString name="asciicircum">
          -45 callgsubr
        </CharString>
        <CharString name="asciicircum.lat">
          -45 callgsubr
        </CharString>
        <CharString name="asciitilde">
          -59 252 74 8 74 hstemhm
          34 438 hintmask 10100000
          340 252 rmoveto
          -19 callgsubr
          hintmask 11100000
          -37 callgsubr
          hintmask 10100000
          56 40 -82 80 hhcurveto
          endchar
        </CharString>
        <CharString name="asterisk">
          -52 callsubr
        </CharString>
        <CharString name="asterisk.lat">
          -52 callsubr
        </CharString>
        <CharString name="at">
          -97 callgsubr
        </CharString>
        <CharString name="at.lat">
          -97 callgsubr
        </CharString>
        <CharString name="atilde">
          -31 callsubr
          75 -15 callgsubr
          49 98 -50 66 179 101 -56 66 hintmask 1110011010000000
          346 576 rmoveto
          hintmask 1110101001000000
          0 callgsubr
          hintmask 1110011001000000
          -47 callgsubr
          hintmask 1101000110000000
          -58 callgsubr
          hintmask 1110011010000000
          12 callsubr
          -153 -588 -107 callgsubr
          endchar
        </CharString>
        <CharString name="b">
          -6 -12 -10 callsubr
          hstem
          77 101 233 104 vstem
          -69 callsubr
          endchar
        </CharString>
        <CharString name="backslash">
          -17 callgsubr
        </CharString>
        <CharString name="backslash.lat">
          -17 callgsubr
        </CharString>
        <CharString name="bar">
          -316 -229 -21 1000 -20 hstem
          90 69 vstem
          90 -250 rmoveto
          69 1000 -69 hlineto
          endchar
        </CharString>
        <CharString name="braceleft">
          -84 callsubr
        </CharString>
        <CharString name="braceleft.lat">
          -84 callsubr
        </CharString>
        <CharString name="braceright">
          -83 callgsubr
        </CharString>
        <CharString name="braceright.lat">
          -83 callgsubr
        </CharString>
        <CharString name="bracketleft">
          -25 callgsubr
        </CharString>
        <CharString name="bracketleft.lat">
          -25 callgsubr
        </CharString>
        <CharString name="bracketright">
          -30 callgsubr
        </CharString>
        <CharString name="bracketright.lat">
          -30 callgsubr
        </CharString>
        <CharString name="breve">
          -19 571 66 hstem
          113 22 callsubr
          vstem
          273 -82 callgsubr
          endchar
        </CharString>
        <CharString name="brokenbar">
          -316 12 474 hstem
          90 69 vstem
          90 486 rmoveto
          -11 vlineto
          -463 69 23 vlineto
          451 vlineto
          endchar
        </CharString>
        <CharString name="bullet">
          -33 callgsubr
        </CharString>
        <CharString name="bullet.lat">
          -33 callgsubr
        </CharString>
        <CharString name="c">
          -106 -21 callgsubr
          hstem
          43 104 vstem
          276 -12 rmoveto
          57 57 21 40 45 hvcurveto
          -71 callsubr
          -162 101 -94 132 hvcurveto
          endchar
        </CharString>
        <CharString name="caron">
          -19 575 -1 callgsubr
          110 326 vstem
          222 -85 callsubr
          endchar
        </CharString>
        <CharString name="ccaron">
          -106 -21 callgsubr
          74 -1 callgsubr
          43 104 vstem
          223 -85 callsubr
          165 -724 rmoveto
          57 57 21 40 45 hvcurveto
          -71 callsubr
          -162 101 -94 132 hvcurveto
          endchar
        </CharString>
        <CharString name="ccedilla">
          -106 30 callsubr
          508 83 hstem
          43 104 133 76 vstem
          282 -63 rmoveto
          23 53 47 6 46 20 37 33 rlinecurve
          -71 callsubr
          -148 84 -91 115 -15 hvcurveto
          -39 -80 rlineto
          58 -8 19 -14 -24 vvcurveto
          -29 -25 -14 -82 -5 vhcurveto
          9 -46 rlineto
          111 5 63 29 61 vvcurveto
          41 -27 20 -47 11 vhcurveto
          endchar
        </CharString>
        <CharString name="cedilla">
          -19 30 callsubr
          hstem
          280 76 vstem
          182 -39 callsubr
        </CharString>
        <CharString name="cent">
          -83 callsubr
        </CharString>
        <CharString name="cent.heb">
          -25 endchar
        </CharString>
        <CharString name="cent.lat">
          -83 callsubr
        </CharString>
        <CharString name="chi">
          -71 501 -20 hstem
          9 494 vstem
          112 -190 rmoveto
          137 272 15 callgsubr
          151 -272 99 24 -202 332 172 323 rlineto
          -106 hlineto
          -114 -235 rlineto
          -4 hlineto
          -138 247 -100 -24 190 -313 -192 -342 rlineto
          endchar
        </CharString>
        <CharString name="circledotted">
          18 -13 78 -50 77 5 77 32 77 33 78 -38 77 -35 77 -65 78 hstemhm
          43 75 -47 74 4 74 32 74 -22 75 -21 74 4 74 -47 75 hintmask 0000000000000000
          hintmask 0000010000001000
          474 395 rmoveto
          25 -17 13 -20 -8 -7 -2 -3 -5 vhcurveto
          hintmask 0000000100001000
          12 -7 -12 6 -14 hhcurveto
          -1 -1 0 0 hvcurveto
          3 vlineto
          25 -17 14 -21 -20 -17 -14 -25 -24 17 -15 20 vhcurveto
          1 1 0 2 hhcurveto
          -1 vlineto
          hintmask 0000010000001000
          -25 17 -15 19 8 7 2 3 6 vhcurveto
          -11 6 12 -7 14 hhcurveto
          22 15 15 24 hvcurveto
          hintmask 0000001000100000
          -288 80 rmoveto
          -20 -17 -13 -26 -24 17 -14 20 22 15 14 24 26 -17 13 -20 hvcurveto
          hintmask 0000100001000000
          -79 -81 rmoveto
          -19 -17 -13 -25 -25 17 -15 19 23 15 15 25 25 -16 13 -22 hvcurveto
          hintmask 0001000010000001
          11 -149 rmoveto
          25 -16 13 -23 -19 -17 -13 -25 -25 17 -14 19 24 15 14 25 vhcurveto
          385 38 rmoveto
          -21 -16 -13 -25 -25 16 -14 21 22 16 14 25 25 -18 13 -20 hvcurveto
          hintmask 0010000001000010
          -396 -109 rmoveto
          -19 -17 -14 -25 -24 17 -14 19 23 15 14 24 25 -16 14 -22 hvcurveto
          369 hmoveto
          -20 -17 -14 -25 -24 17 -14 20 23 14 14 24 25 -16 14 -21 hvcurveto
          hintmask 0100000000100100
          -290 -82 rmoveto
          -20 -17 -13 -24 -26 17 -14 20 22 15 14 26 24 -17 13 -20 hvcurveto
          211 hmoveto
          -19 -17 -13 -24 -26 17 -14 19 23 15 14 26 24 -17 13 -21 hvcurveto
          hintmask 1000000000010000
          -106 -27 rmoveto
          -19 -17 -14 -24 -25 17 -15 19 23 15 15 25 24 -16 14 -22 hvcurveto
          endchar
        </CharString>
        <CharString name="circumflex">
          -19 673 68 hstem
          110 326 vstem
          151 -87 callgsubr
          endchar
        </CharString>
        <CharString name="colon">
          -301 -12 143 207 -12 callgsubr
          338 -90 callsubr
          -350 vmoveto
          -4 callgsubr
        </CharString>
        <CharString name="comma">
          -301 1 130 hstem
          143 72 vstem
          136 131 -35 callgsubr
        </CharString>
        <CharString name="copyright">
          -94 callsubr
        </CharString>
        <CharString name="copyright.lat">
          -94 callsubr
        </CharString>
        <CharString name="currency">
          -59 133 73 247 73 -17 -20 hstemhm
          52 92 218 92 hintmask 10111000
          77 97 rmoveto
          68 70 rlineto
          -22 32 37 -12 39 hhcurveto
          38 39 12 22 31 hvcurveto
          68 -70 53 54 -64 64 rlineto
          22 31 14 38 45 vvcurveto
          46 -13 39 -23 30 vhcurveto
          64 65 rlineto
          hintmask 11011000
          -53 53 -68 -69 rlineto
          21 -31 -38 12 -39 hhcurveto
          -39 -38 -12 -21 -31 hvcurveto
          hintmask 10111000
          -68 69 -52 -53 62 -65 rlineto
          -22 -30 -13 -39 -46 vvcurveto
          -45 13 -38 23 -31 vhcurveto
          -63 -64 23 callgsubr
          55 rmoveto
          -60 -49 49 74 hvcurveto
          hintmask 11011000
          74 49 50 60 60 49 -50 -74 vhcurveto
          hintmask 10111000
          -74 -49 -49 -60 vhcurveto
          endchar
        </CharString>
        <CharString name="d">
          -5 -12 -10 callsubr
          hstem
          45 104 233 101 vstem
          -92 callgsubr
          endchar
        </CharString>
        <CharString name="dagger">
          -55 callgsubr
        </CharString>
        <CharString name="dagger.lat">
          -55 callgsubr
        </CharString>
        <CharString name="daggerdbl">
          -74 callgsubr
        </CharString>
        <CharString name="daggerdbl.lat">
          -74 callgsubr
        </CharString>
        <CharString name="degree">
          -61 callsubr
        </CharString>
        <CharString name="degree.lat">
          -61 callsubr
        </CharString>
        <CharString name="dieresis">
          -19 582 112 hstem
          117 -7 callsubr
          vstem
          173 -98 callsubr
          endchar
        </CharString>
        <CharString name="divide">
          -59 89 121 83 74 82 121 hstem
          191 124 vstem
          253 449 -3 callgsubr
          -219 -156 rmoveto
          -15 callsubr
          219 -278 -3 callgsubr
          endchar
        </CharString>
        <CharString name="dollar">
          -86 callgsubr
        </CharString>
        <CharString name="dollar.heb">
          -25 endchar
        </CharString>
        <CharString name="dollar.lat">
          -86 callgsubr
        </CharString>
        <CharString name="dotaccent">
          -19 581 121 hstem
          211 124 vstem
          273 -38 callsubr
          endchar
        </CharString>
        <CharString name="dotbelowcomb">
          -43 callsubr
          hstem
          -62 124 vstem
          -212 vmoveto
          -104 callgsubr
          endchar
        </CharString>
        <CharString name="dotlessi">
          -310 0 489 14 callgsubr
          77 hmoveto
          101 489 -101 hlineto
          endchar
        </CharString>
        <CharString name="dotlessj">
          -317 -211 81 hstem
          81 101 vstem
          36 5 callsubr
          1 527 rlineto
          -101 hlineto
          -1 -528 rlineto
          -32 callgsubr
          10 callgsubr
          endchar
        </CharString>
        <CharString name="e">
          4 callgsubr
          465 270 -106 callgsubr
          endchar
        </CharString>
        <CharString name="e.sups">
          -73 callgsubr
        </CharString>
        <CharString name="eacute">
          4 callgsubr
          427 727 rmoveto
          -70 67 -145 -171 51 -50 rlineto
          202 -303 -106 callgsubr
          endchar
        </CharString>
        <CharString name="ebreve">
          -63 -12 -50 callsubr
          70 66 hstemhm
          43 95 -28 22 callsubr
          -53 88 hintmask 00000000
          hintmask 11110110
          270 -82 callgsubr
          hintmask 11111001
          195 -301 -106 callgsubr
          endchar
        </CharString>
        <CharString name="ecircumflex">
          -63 -12 -50 callsubr
          172 68 20 callsubr
          268 673 rmoveto
          4 hlineto
          120 -107 41 38 -112 137 rlineto
          -102 hlineto
          -112 -137 41 -38 rlineto
          317 -296 -106 callgsubr
          endchar
        </CharString>
        <CharString name="edieresis">
          -63 -12 -50 callsubr
          81 112 hstemhm
          43 95 -24 -7 callsubr
          -49 88 hintmask 00000000
          hintmask 11110110
          170 -98 callsubr
          hintmask 11111001
          95 -312 -106 callgsubr
          endchar
        </CharString>
        <CharString name="egrave">
          4 callgsubr
          328 623 rmoveto
          -145 171 -70 -67 164 -154 rlineto
          188 -303 -106 callgsubr
          endchar
        </CharString>
        <CharString name="eight">
          -102 callgsubr
        </CharString>
        <CharString name="eight.heb">
          -102 callgsubr
        </CharString>
        <CharString name="eight.lat">
          -102 callgsubr
        </CharString>
        <CharString name="eight.pnumheb">
          -59 endchar
        </CharString>
        <CharString name="eight.pnumlat">
          -59 endchar
        </CharString>
        <CharString name="ellipsis">
          432 -12 143 hstem
          98 136 198 136 198 136 vstem
          166 -12 -90 callsubr
          334 hmoveto
          -96 callgsubr
          334 hmoveto
          -4 callgsubr
        </CharString>
        <CharString name="emacron">
          -63 -12 -50 callsubr
          97 68 hstemhm
          43 95 -5 274 -30 88 hintmask 00000000
          hintmask 11110100
          407 666 rmoveto
          -274 -68 274 hlineto
          hintmask 11111010
          58 -328 -106 callgsubr
          endchar
        </CharString>
        <CharString name="emdash">
          -11 callsubr
        </CharString>
        <CharString name="emdash.lat">
          -11 callsubr
        </CharString>
        <CharString name="endash">
          -8 callgsubr
        </CharString>
        <CharString name="endash.lat">
          -8 callgsubr
        </CharString>
        <CharString name="eogonek">
          -63 -207 64 131 34 callgsubr
          98 124 71 41 88 vstem
          359 -207 rmoveto
          27 37 12 17 21 hvcurveto
          -24 48 rlineto
          -8 -11 -12 -5 -15 hhcurveto
          -25 -21 14 30 41 23 36 87 62 hvcurveto
          -35 64 rlineto
          -23 -36 -37 -14 -44 hhcurveto
          -85 -59 57 94 -8 hvcurveto
          319 hlineto
          2 12 2 20 20 vvcurveto
          138 -70 93 -129 -114 -109 -98 -159 -161 105 -95 133 14 13 1 5 16 vhcurveto
          -26 -23 -33 -42 -49 vvcurveto
          -58 41 -29 53 vhcurveto
          -218 495 rmoveto
          86 10 55 48 62 hhcurveto
          71 38 -49 -85 hvcurveto
          endchar
        </CharString>
        <CharString name="eogonek.sups">
          -73 callgsubr
        </CharString>
        <CharString name="equal">
          19 callgsubr
          34 403 rmoveto
          -15 callsubr
          -294 vmoveto
          -15 callsubr
          endchar
        </CharString>
        <CharString name="estimated">
          235 -12 21 307 19 306 20 hstem
          46 130 450 129 vstem
          401 -12 rmoveto
          114 102 53 79 65 hvcurveto
          -52 hlineto
          -68 -55 -82 -43 -91 hhcurveto
          -86 -78 38 61 -54 hvcurveto
          -4 6 -4 7 8 vvcurveto
          183 vlineto
          3 2 1 2 vhcurveto
          575 9 hlineto
          186 -158 150 -196 -196 -159 -150 -186 -186 159 -151 196 vhcurveto
          -221 347 rmoveto
          -2 -2 2 3 hvcurveto
          180 vlineto
          9 4 8 5 6 vhcurveto
          60 55 76 38 86 hhcurveto
          83 76 -37 -58 56 hvcurveto
          5 -6 4 -7 -9 vvcurveto
          -184 vlineto
          -3 -2 -2 -3 vhcurveto
          endchar
        </CharString>
        <CharString name="eth">
          -16 -12 83 301 77 195 -20 93 -20 hstem
          50 94 252 96 vstem
          357 604 rmoveto
          126 64 -28 49 -142 -73 -43 35 -47 29 -48 25 rlinecurve
          -45 -63 38 -21 36 -21 31 -24 rlinecurve
          -124 -63 28 -48 142 72 47 -46 34 -56 19 -72 rlinecurve
          40 -33 -46 18 -47 hhcurveto
          -113 -92 -87 -138 -146 104 -90 116 135 87 111 161 155 -56 108 -79 81 hvcurveto
          -84 -533 rmoveto
          -70 -59 59 94 89 48 59 81 41 41 -13 -51 39 hvcurveto
          1 -17 1 -17 -19 vvcurveto
          -113 -43 -71 -80 vhcurveto
          endchar
        </CharString>
        <CharString name="exclam">
          -60 callgsubr
        </CharString>
        <CharString name="exclam.lat">
          -60 callgsubr
        </CharString>
        <CharString name="exclamdown">
          -261 358 143 hstemhm
          84 136 -109 82 hintmask 00000000
          hintmask 11000000
          152 358 rmoveto
          38 30 30 42 41 -30 30 -38 -38 -30 -30 -41 -42 -26 callsubr
          hintmask 10100000
          -51 -539 rmoveto
          102 hlineto
          -3 105 -14 357 rlineto
          -68 hlineto
          -14 -357 rlineto
          endchar
        </CharString>
        <CharString name="exclamdown.lat">
          -261 endchar
        </CharString>
        <CharString name="f">
          -259 408 81 151 81 hstem
          94 101 vstem
          260 640 rmoveto
          17 19 -4 -8 18 hvcurveto
          20 76 rlineto
          9 -22 -31 8 -33 hhcurveto
          -108 -46 -69 -101 hvcurveto
          -62 vlineto
          -66 -5 rlineto
          -76 66 -408 101 408 99 81 -99 63 vlineto
          60 22 28 43 vhcurveto
          endchar
        </CharString>
        <CharString name="fi">
          -4 408 81 92 121 -62 81 hstemhm
          94 101 177 124 -113 101 hintmask 10110100
          -49 callsubr
          hintmask 11011000
          340 30 -54 callsubr
          hintmask 10110100
          -51 -581 -30 callsubr
        </CharString>
        <CharString name="five">
          -96 callsubr
        </CharString>
        <CharString name="five.heb">
          -96 callsubr
        </CharString>
        <CharString name="five.lat">
          -96 callsubr
        </CharString>
        <CharString name="five.pnumheb">
          -59 endchar
        </CharString>
        <CharString name="five.pnumlat">
          -59 endchar
        </CharString>
        <CharString name="fl">
          5 -12 83 337 81 151 81 -12 -20 hstemhm
          94 101 188 101 hintmask 11101100
          -49 callsubr
          432 -478 rmoveto
          -2 -9 -4 0 -5 hhcurveto
          -12 -12 10 27 hvcurveto
          hintmask 11011100
          601 -101 -595 vlineto
          -79 28 -47 73 25 17 4 5 13 vhcurveto
          endchar
        </CharString>
        <CharString name="florin">
          -88 callsubr
        </CharString>
        <CharString name="florin.heb">
          -25 endchar
        </CharString>
        <CharString name="florin.lat">
          -88 callsubr
        </CharString>
        <CharString name="four">
          -89 callgsubr
        </CharString>
        <CharString name="four.heb">
          -89 callgsubr
        </CharString>
        <CharString name="four.lat">
          -89 callgsubr
        </CharString>
        <CharString name="four.pnumheb">
          -59 endchar
        </CharString>
        <CharString name="four.pnumlat">
          -59 endchar
        </CharString>
        <CharString name="fraction">
          -80 callgsubr
        </CharString>
        <CharString name="fraction.lat">
          -80 callgsubr
        </CharString>
        <CharString name="g">
          -37 callsubr
          1 callsubr
          189 90 -29 98 hintmask 0000000000000000
          hintmask 1110110001000000
          245 -220 -28 callgsubr
          hintmask 1111000110000000
          -64 callgsubr
          hintmask 1110101010000000
          -57 callgsubr
          hintmask 1110100110000000
          -36 callgsubr
          hintmask 1110110010000000
          11 callsubr
          hintmask 1110110001000000
          9 callsubr
          hintmask 1110101010000000
          -61 callgsubr
          hintmask 1110110001000000
          -79 callgsubr
        </CharString>
        <CharString name="gammalatin">
          -82 -206 695 hstem
          181 126 vstem
          302 45 rmoveto
          169 444 rlineto
          -98 hlineto
          -84 -244 -14 -44 -15 -33 -14 -44 -6 callsubr
          -14 44 -15 33 -14 44 -84 244 rcurveline
          -103 hlineto
          173 -444 rlineto
          12 hlineto
          -11 -56 -5 -41 -45 vvcurveto
          -64 28 -45 35 35 28 45 64 43 -5 43 -11 56 vhcurveto
          endchar
        </CharString>
        <CharString name="gcaron">
          -37 callsubr
          74 68 69 -20 58 -20 1 callsubr
          189 90 -29 98 hintmask 1110111101010000
          213 -85 callsubr
          hintmask 1110111110001000
          144 -932 -28 callgsubr
          hintmask 1111011100110000
          -64 callgsubr
          hintmask 1110111101010000
          -57 callgsubr
          hintmask 1110111100110000
          -36 callgsubr
          hintmask 1110111110010000
          11 callsubr
          hintmask 1110111110001000
          9 callsubr
          hintmask 1110111101010000
          -61 callgsubr
          hintmask 1110111110001000
          -79 callgsubr
        </CharString>
        <CharString name="gdotaccent">
          -37 callsubr
          80 121 1 callsubr
          50 124 15 90 -29 98 hintmask 0000000000000000
          hintmask 1110111001010000
          264 -38 callsubr
          -19 -801 -28 callgsubr
          hintmask 1110110011100000
          -91 hlineto
          -62 -20 19 29 24 11 14 16 14 hvcurveto
          -10 22 25 -5 22 hhcurveto
          hintmask 1111010100100000
          102 81 61 107 37 -14 33 -19 20 hvcurveto
          94 76 -173 hlineto
          hintmask 1110110100100000
          -57 callgsubr
          hintmask 1110110010100000
          -36 callgsubr
          hintmask 1110111000100000
          11 callsubr
          hintmask 1110111001010000
          9 callsubr
          hintmask 1110110100100000
          -61 callgsubr
          hintmask 1110111000010000
          -79 callgsubr
        </CharString>
        <CharString name="germandbls">
          27 -12 77 573 81 hstemhm
          77 100 102 94 -11 98 10 94 hintmask 11110100
          397 -12 rmoveto
          105 62 67 86 hvcurveto
          160 -191 -17 88 64 87 32 99 vvcurveto
          hintmask 11101100
          81 -61 71 -114 -135 -73 -86 -126 vhcurveto
          -507 100 491 vlineto
          96 40 51 67 51 27 -35 -47 vhcurveto
          -81 -83 -29 -86 vvcurveto
          hintmask 11110100
          -137 191 17 -104 vvcurveto
          -38 -27 -33 -49 -36 -32 13 28 -35 vhcurveto
          -38 -70 rlineto
          -30 43 45 -18 56 hhcurveto
          endchar
        </CharString>
        <CharString name="glottalstopreversedsupmod">
          -251 804 60 hstem
          24 74 35 74 vstem
          133 389 rmoveto
          74 212 hlineto
          -78 46 -31 34 50 vvcurveto
          46 31 27 50 38 27 -20 -25 20 vhcurveto
          38 47 rlineto
          31 -28 -41 27 -61 hhcurveto
          -81 -67 -44 -87 -74 45 -42 64 -45 hvcurveto
          endchar
        </CharString>
        <CharString name="grave">
          -19 26 callgsubr
          116 215 vstem
          280 -56 callsubr
          endchar
        </CharString>
        <CharString name="gravecomb">
          26 callgsubr
          -157 215 vstem
          7 -56 callsubr
          endchar
        </CharString>
        <CharString name="gravecomb.cap">
          692 183 hstem
          -146 206 vstem
          15 -45 callsubr
          endchar
        </CharString>
        <CharString name="greater">
          -59 123 418 hstemhm
          34 438 -103 103 hintmask 11000000
          34 123 rmoveto
          hintmask 10100000
          438 171 rlineto
          76 vlineto
          -438 171 rlineto
          -86 vlineto
          335 -121 rlineto
          -4 vlineto
          -335 -121 rlineto
          endchar
        </CharString>
        <CharString name="greaterequal">
          -59 0 74 hstem
          369 103 vstem
          34 153 rmoveto
          438 150 rlineto
          88 vlineto
          -438 150 rlineto
          -86 vlineto
          199 -65 136 -41 rlineto
          -4 vlineto
          -136 -41 -199 -65 rlineto
          -239 vmoveto
          -15 callsubr
          endchar
        </CharString>
        <CharString name="guillemotleft">
          -63 callgsubr
        </CharString>
        <CharString name="guillemotleft.lat">
          -63 callgsubr
        </CharString>
        <CharString name="guillemotright">
          -66 callgsubr
        </CharString>
        <CharString name="guillemotright.lat">
          -66 callgsubr
        </CharString>
        <CharString name="guilsinglleft">
          -288 7 callgsubr
          46 61 vstem
          182 63 -10 callgsubr
        </CharString>
        <CharString name="guilsinglleft.lat">
          -288 7 callgsubr
          46 61 vstem
          182 63 -10 callgsubr
        </CharString>
        <CharString name="guilsinglright">
          -288 7 callgsubr
          170 61 vstem
          95 63 -14 callsubr
        </CharString>
        <CharString name="guilsinglright.lat">
          -288 7 callgsubr
          170 61 vstem
          95 63 -14 callsubr
        </CharString>
        <CharString name="h">
          -13 414 87 208 -20 hstem
          77 101 204 101 vstem
          77 hmoveto
          -88 callgsubr
          -49 -36 -41 -43 vhcurveto
          4 97 rlineto
          188 -101 vlineto
          endchar
        </CharString>
        <CharString name="hbar">
          -13 372 87 108 54 -54 142 39 callsubr
          204 101 hintmask 10111000
          333 459 rmoveto
          -67 -49 -36 -41 -43 hvcurveto
          4 97 rlineto
          88 178 vlineto
          hintmask 11011000
          54 -178 vlineto
          hintmask 10111000
          88 -101 vlineto
          hintmask 11011000
          -88 vlineto
          -72 -5 rlineto
          hintmask 10111000
          -49 72 -567 101 305 vlineto
          44 44 31 23 46 hhcurveto
          58 25 -34 -85 hvcurveto
          -253 101 266 vlineto
          124 -46 69 -104 vhcurveto
          endchar
        </CharString>
        <CharString name="hungarumlaut">
          -19 567 200 hstem
          167 316 vstem
          222 -18 callsubr
        </CharString>
        <CharString name="hyphen">
          -62 callgsubr
        </CharString>
        <CharString name="i">
          -310 581 121 hstemhm
          66 124 -113 101 hintmask 00000000
          hintmask 11000000
          128 -38 callsubr
          hintmask 10100000
          -51 -581 -30 callsubr
        </CharString>
        <CharString name="iacute">
          -310 0 794 14 callgsubr
          121 -75 callsubr
          7 -623 -30 callsubr
        </CharString>
        <CharString name="icircumflex">
          -310 673 68 14 callgsubr
          6 -87 callgsubr
          112 -604 -30 callsubr
        </CharString>
        <CharString name="idieresis">
          -310 582 112 hstemhm
          -28 112 -7 101 -6 112 hintmask 00000000
          hintmask 11010000
          28 38 callsubr
          33 23 25 31 32 -23 24 -33 -23 callsubr
          hintmask 10100000
          -151 -582 -30 callsubr
        </CharString>
        <CharString name="igrave">
          -310 0 794 14 callgsubr
          135 -56 callsubr
          106 -727 -30 callsubr
        </CharString>
        <CharString name="imacron">
          -310 598 68 14 callgsubr
          -9 -12 callsubr
          86 -666 -30 callsubr
        </CharString>
        <CharString name="infinity">
          226 137 95 -74 76 174 95 -60 76 hstemhm
          39 77 559 77 hintmask 00000000
          hintmask 10011100
          573 137 rmoveto
          102 77 78 122 106 -75 76 -101 -84 -61 -53 -64 -49 hvcurveto
          -4 hlineto
          hintmask 01101100
          48 -36 -52 53 -80 hhcurveto
          -99 -72 -68 -113 -89 70 -75 87 80 55 58 42 35 hvcurveto
          4 hlineto
          hintmask 10011100
          -77 61 57 -44 85 hhcurveto
          95 vmoveto
          -60 -43 43 68 -52 hvcurveto
          65 46 48 35 54 hhcurveto
          68 41 -44 -65 -55 -38 -47 -64 hvcurveto
          hintmask 01101100
          -368 2 rmoveto
          -51 -38 40 51 51 34 32 52 48 42 -36 -54 38 hvcurveto
          -47 -32 -42 -37 -51 hhcurveto
          endchar
        </CharString>
        <CharString name="integral">
          -216 -158 78 792 78 hstemhm
          120 92 -51 91 hintmask 11010000
          100 -158 rmoveto
          126 26 100 134 hvcurveto
          hintmask 11100000
          153 -40 182 148 vvcurveto
          100 11 53 54 14 12 -1 -3 9 vhcurveto
          11 75 rlineto
          4 -9 -20 3 -20 hhcurveto
          -128 -26 -101 -133 hvcurveto
          hintmask 11010000
          -153 41 -183 -148 vvcurveto
          -101 -11 -51 -55 -14 -12 1 3 -9 vhcurveto
          -11 -75 rlineto
          -4 10 19 -3 22 hhcurveto
          endchar
        </CharString>
        <CharString name="ismall">
          -208 0 32 callgsubr
          hstem
          128 101 vstem
          48 hmoveto
          261 81 -80 327 80 81 -261 -81 80 -327 -80 hlineto
          endchar
        </CharString>
        <CharString name="j">
          -309 -211 81 711 121 hstemhm
          67 124 -110 101 hintmask 00000000
          hintmask 11100000
          129 -38 callsubr
          hintmask 11010000
          -48 -620 rmoveto
          -32 callgsubr
          10 callgsubr
          108 38 71 102 hvcurveto
          1 527 rlineto
          -101 hlineto
          endchar
        </CharString>
        <CharString name="j.sups">
          -390 247 60 406 -20 77 86 hstemhm
          42 94 -85 74 hintmask 00000000
          hintmask 11110000
          89 770 rmoveto
          27 20 18 25 25 -20 18 -27 -27 -20 -18 -25 -25 20 -18 27 hvcurveto
          -65 -523 rmoveto
          hintmask 11101000
          74 27 49 72 hvcurveto
          345 -74 -349 vlineto
          -38 -7 -19 -30 -12 -8 2 3 -8 vhcurveto
          -14 -57 rlineto
          hintmask 11110000
          -5 15 13 -3 24 hhcurveto
          endchar
        </CharString>
        <CharString name="k">
          -55 709 -20 hstem
          77 99 vstem
          -70 callsubr
          endchar
        </CharString>
        <CharString name="l">
          -51 callgsubr
        </CharString>
        <CharString name="lefttorightembed">
          21 callsubr
          -129 88 4 callsubr
          -76 -36 76 hlineto
          -63 -66 rlineto
          -143 66 rmoveto
          88 36 -88 hlineto
          endchar
        </CharString>
        <CharString name="less">
          -59 123 418 hstemhm
          34 103 -103 438 hintmask 10100000
          472 123 rmoveto
          86 vlineto
          hintmask 11000000
          -335 121 rlineto
          4 vlineto
          335 121 rlineto
          86 vlineto
          -438 -171 rlineto
          -76 vlineto
          endchar
        </CharString>
        <CharString name="lessequal">
          -59 0 74 hstem
          34 103 vstem
          472 153 rmoveto
          86 vlineto
          -199 65 -136 41 rlineto
          4 vlineto
          136 41 199 65 rlineto
          86 vlineto
          -438 -150 rlineto
          -88 vlineto
          -303 vmoveto
          -15 callsubr
          endchar
        </CharString>
        <CharString name="litre">
          -138 -12 85 572 76 hstem
          107 99 114 85 vstem
          384 117 rmoveto
          -22 -24 -28 -22 -40 hhcurveto
          -47 -39 33 85 hvcurveto
          32 vlineto
          129 105 70 110 125 vvcurveto
          101 -57 57 -83 -90 -68 -66 -158 vhcurveto
          -256 vlineto
          -28 -20 -29 -20 -32 -20 40 -63 rcurveline
          17 11 17 11 16 11 rrcurveto
          -108 11 73 -55 85 hhcurveto
          62 48 34 33 36 hvcurveto
          -155 590 rmoveto
          30 22 -24 -59 -87 -42 -77 -72 -73 hvcurveto
          188 vlineto
          93 29 39 33 vhcurveto
          endchar
        </CharString>
        <CharString name="logicalnot">
          -59 293 74 hstem
          394 78 vstem
          394 101 rmoveto
          78 266 -438 -74 360 hlineto
          endchar
        </CharString>
        <CharString name="lozenge">
          -39 -10 85 510 85 hstem
          55 416 vstem
          219 -10 rmoveto
          88 hlineto
          164 340 -164 340 rlineto
          -88 hlineto
          -164 -340 rlineto
          206 -255 rmoveto
          -60 129 -59 126 59 125 60 130 15 callgsubr
          60 -130 59 -125 -59 -126 -60 -129 rlineto
          endchar
        </CharString>
        <CharString name="lslash">
          -291 -12 83 638 -20 hstem
          83 101 vstem
          208 71 rmoveto
          -12 -12 10 27 hvcurveto
          259 vlineto
          88 52 -36 64 -52 -32 rlineto
          258 -101 -309 vlineto
          -90 -54 36 -64 54 34 rlineto
          -202 vlineto
          -79 28 -47 73 25 17 4 5 13 vhcurveto
          -13 76 rlineto
          -2 -9 -4 0 -5 hhcurveto
          endchar
        </CharString>
        <CharString name="m">
          272 414 75 -75 87 39 callsubr
          193 101 193 101 hintmask 01111000
          77 hmoveto
          101 347 hlineto
          45 41 37 22 33 35 callsubr
          347 vlineto
          45 41 36 22 34 35 callsubr
          308 vlineto
          124 -48 69 -102 -61 -49 -38 -52 -49 vhcurveto
          56 -21 -41 34 -73 hhcurveto
          -60 -49 -36 -44 -42 hvcurveto
          -3 hlineto
          hintmask 10111000
          -8 68 18 callgsubr
        </CharString>
        <CharString name="macron">
          -19 598 68 hstem
          136 274 vstem
          136 -12 callsubr
          endchar
        </CharString>
        <CharString name="minus">
          -59 293 74 hstem
          34 438 vstem
          34 293 rmoveto
          -15 callsubr
          endchar
        </CharString>
        <CharString name="multiply">
          -59 122 415 hstem
          50 407 vstem
          102 122 rmoveto
          151 155 151 -155 53 54 -151 154 151 154 -53 53 -151 -155 -151 155 -52 -53 151 -154 -151 -154 rlineto
          endchar
        </CharString>
        <CharString name="n">
          -11 414 75 -75 87 39 callsubr
          204 101 hintmask 01110000
          77 hmoveto
          -88 callgsubr
          -50 -36 -44 -45 vhcurveto
          -3 hlineto
          hintmask 10110000
          -8 68 18 callgsubr
        </CharString>
        <CharString name="newsheqel">
          -59 endchar
        </CharString>
        <CharString name="newsheqel.heb">
          -25 endchar
        </CharString>
        <CharString name="newsheqel.lat">
          -79 endchar
        </CharString>
        <CharString name="nine">
          -99 callsubr
        </CharString>
        <CharString name="nine.heb">
          -99 callsubr
        </CharString>
        <CharString name="nine.lat">
          -99 callsubr
        </CharString>
        <CharString name="nine.pnumheb">
          -59 endchar
        </CharString>
        <CharString name="nine.pnumlat">
          -59 endchar
        </CharString>
        <CharString name="notequal">
          19 callgsubr
          58 58 rmoveto
          70 hlineto
          75 125 rlineto
          269 74 -227 hlineto
          86 146 rlineto
          141 74 -99 hlineto
          75 125 rlineto
          -70 hlineto
          -75 -125 rlineto
          -269 -74 227 hlineto
          -86 -146 rlineto
          -141 -74 99 hlineto
          endchar
        </CharString>
        <CharString name="ntilde">
          -11 414 75 -75 87 75 -15 callgsubr
          77 101 -57 66 195 101 -72 66 hintmask 0110011010000000
          370 576 rmoveto
          hintmask 0110101001000000
          0 callgsubr
          hintmask 0110011001000000
          -47 callgsubr
          hintmask 0101000110000000
          -58 callgsubr
          hintmask 0110011010000000
          12 callsubr
          -293 -576 rmoveto
          -88 callgsubr
          -50 -36 -44 -45 vhcurveto
          -3 hlineto
          hintmask 1010011010000000
          -8 68 18 callgsubr
        </CharString>
        <CharString name="numbersign">
          -81 callgsubr
        </CharString>
        <CharString name="numbersign.heb">
          -25 endchar
        </CharString>
        <CharString name="numbersign.lat">
          -81 callgsubr
        </CharString>
        <CharString name="o">
          -23 callgsubr
          hstem
          43 104 252 104 vstem
          273 -12 rmoveto
          -105 callsubr
          endchar
        </CharString>
        <CharString name="o.sups">
          -63 callsubr
        </CharString>
        <CharString name="oacute">
          -23 callgsubr
          hstem
          43 104 252 104 vstem
          266 -75 callsubr
          58 -635 rmoveto
          -105 callsubr
          endchar
        </CharString>
        <CharString name="obreve">
          -23 callgsubr
          70 66 hstemhm
          43 104 -34 22 callsubr
          -34 104 hintmask 00000000
          hintmask 11101100
          273 -82 callgsubr
          hintmask 11110010
          -583 vmoveto
          -105 callsubr
          endchar
        </CharString>
        <CharString name="ocircumflex">
          -23 callgsubr
          172 68 hstem
          43 104 252 104 vstem
          151 -87 callgsubr
          163 -616 rmoveto
          -105 callsubr
          endchar
        </CharString>
        <CharString name="odieresis">
          -23 callgsubr
          81 112 hstemhm
          43 104 -30 -7 callsubr
          -30 104 hintmask 00000000
          hintmask 11101100
          173 -98 callsubr
          hintmask 11110010
          -100 -594 rmoveto
          -105 callsubr
          endchar
        </CharString>
        <CharString name="oe">
          269 -12 83 147 65 135 83 -79 79 hstemhm
          43 103 243 94 226 88 hintmask 11101110
          265 -12 rmoveto
          78 58 38 73 39 hvcurveto
          -69 38 64 -42 71 hhcurveto
          64 56 22 30 45 hvcurveto
          -36 68 rlineto
          -23 -36 -36 -16 -44 hhcurveto
          -76 -61 57 92 -6 hvcurveto
          310 hlineto
          2 12 2 18 20 vvcurveto
          138 -68 95 -123 -68 -61 -42 -70 -38 vhcurveto
          72 -36 -63 40 -73 hhcurveto
          -120 -104 -21 callsubr
          102 -94 120 hvcurveto
          218 295 rmoveto
          hintmask 11011110
          87 9 50 52 61 hhcurveto
          68 38 -51 -88 hvcurveto
          -442 -212 rmoveto
          -72 -49 69 104 hvcurveto
          hintmask 11101110
          104 49 70 72 73 49 -70 -104 vhcurveto
          hintmask 11011110
          -104 -49 -69 -73 vhcurveto
          endchar
        </CharString>
        <CharString name="ogonek">
          -19 endchar
        </CharString>
        <CharString name="ograve">
          -23 callgsubr
          hstem
          43 104 252 104 vstem
          280 -56 callsubr
          157 -739 rmoveto
          -105 callsubr
          endchar
        </CharString>
        <CharString name="omacron">
          -23 callgsubr
          97 68 hstemhm
          43 104 -11 274 -11 104 6 callgsubr
          136 -12 callsubr
          hintmask 11110100
          137 -678 rmoveto
          -105 callsubr
          endchar
        </CharString>
        <CharString name="one">
          -72 callsubr
        </CharString>
        <CharString name="one.heb">
          -72 callsubr
        </CharString>
        <CharString name="one.lat">
          -72 callsubr
        </CharString>
        <CharString name="one.pnumheb">
          -127 endchar
        </CharString>
        <CharString name="one.pnumlat">
          -184 523 114 hstem
          164 101 vstem
          164 hmoveto
          101 637 -76 hlineto
          -38 -23 -43 -16 -61 -11 rrcurveto
          -64 117 vlineto
          endchar
        </CharString>
        <CharString name="one.sups">
          -195 endchar
        </CharString>
        <CharString name="one.supsheb">
          -115 endchar
        </CharString>
        <CharString name="one.supslat">
          -135 endchar
        </CharString>
        <CharString name="onehalf">
          254 667 -20 hstem
          180 423 vstem
          180 -78 callsubr
          endchar
        </CharString>
        <CharString name="onehalf.heb">
          -25 endchar
        </CharString>
        <CharString name="onehalf.lat">
          254 0 65 273 64 33 41 callsubr
          443 75 vstem
          180 -78 callsubr
          -379 -532 rmoveto
          77 390 -62 hlineto
          35 callgsubr
          vlineto
          339 -435 rmoveto
          274 65 -151 hlineto
          75 78 58 60 71 vvcurveto
          83 -54 45 -80 -55 -48 -30 -47 -33 vhcurveto
          45 -41 rlineto
          31 22 27 23 31 hhcurveto
          43 27 -29 -47 -56 -66 -62 -115 -101 hvcurveto
          endchar
        </CharString>
        <CharString name="onequarter">
          244 667 -20 hstem
          192 423 vstem
          192 -78 callsubr
          endchar
        </CharString>
        <CharString name="onequarter.heb">
          -25 endchar
        </CharString>
        <CharString name="onequarter.lat">
          244 99 53 173 65 45 41 callsubr
          420 69 vstem
          551 8 callgsubr
          -378 -532 rmoveto
          390 -62 vlineto
          35 callgsubr
          -300 vlineto
          624 17 -38 callgsubr
        </CharString>
        <CharString name="ordfeminine">
          -82 callsubr
        </CharString>
        <CharString name="ordmasculine">
          -63 callsubr
        </CharString>
        <CharString name="oslash">
          -19 endchar
        </CharString>
        <CharString name="otilde">
          -23 callgsubr
          75 -15 callgsubr
          43 104 -52 66 224 66 -52 104 hintmask 1110011001000000
          344 576 rmoveto
          hintmask 1110101010000000
          0 callgsubr
          hintmask 1110011010000000
          -47 callgsubr
          hintmask 1101000101000000
          -58 callgsubr
          hintmask 1110011001000000
          12 callsubr
          -71 -588 rmoveto
          -105 callsubr
          endchar
        </CharString>
        <CharString name="p">
          -5 -12 84 345 72 -72 84 39 callsubr
          233 104 hintmask 10111000
          77 -199 rmoveto
          101 159 hlineto
          -3 83 rlineto
          -35 42 44 -20 44 34 callsubr
          -69 98 -124 -55 -53 -30 -36 -43 hvcurveto
          -3 hlineto
          hintmask 11011000
          -8 54 rlineto
          -83 hlineto
          208 -417 rmoveto
          -30 -38 12 33 -39 hvcurveto
          hintmask 10111000
          240 vlineto
          40 42 37 2 callgsubr
          hvcurveto
          hintmask 11011000
          -115 -54 -64 -72 vhcurveto
          endchar
        </CharString>
        <CharString name="paragraph">
          -48 callgsubr
        </CharString>
        <CharString name="paragraph.lat">
          -48 callgsubr
        </CharString>
        <CharString name="parenleft">
          -62 callsubr
        </CharString>
        <CharString name="parenleft.lat">
          -62 callsubr
        </CharString>
        <CharString name="parenright">
          -59 callsubr
        </CharString>
        <CharString name="parenright.lat">
          -59 callsubr
        </CharString>
        <CharString name="partialdiff">
          -23 -12 83 257 79 177 83 hstem
          43 94 265 97 vstem
          282 667 rmoveto
          -65 -55 -26 -43 -46 hvcurveto
          46 -63 rlineto
          32 31 37 17 41 hhcurveto
          84 47 -64 -151 -11 0 -10 -1 -10 hvcurveto
          43 -38 -52 26 -52 hhcurveto
          -132 -84 -92 -133 -120 86 -74 100 160 110 153 230 197 -81 99 -136 hvcurveto
          -43 -596 rmoveto
          -54 -48 44 73 84 46 56 86 41 44 -19 -52 39 hvcurveto
          -123 -21 -58 -63 -75 hhcurveto
          endchar
        </CharString>
        <CharString name="percent">
          264 667 -20 hstem
          202 423 vstem
          202 -78 callsubr
          endchar
        </CharString>
        <CharString name="percent.heb">
          -25 endchar
        </CharString>
        <CharString name="percent.lat">
          269 16 callgsubr
          32 32 callsubr
          153 32 callsubr
          vstem
          202 -78 callsubr
          -376 -544 -42 callsubr
          459 -195 -42 callsubr
          endchar
        </CharString>
        <CharString name="period">
          -301 -12 -12 callgsubr
          -12 rmoveto
          -4 callgsubr
        </CharString>
        <CharString name="periodcentered">
          -301 250 -12 callgsubr
          250 rmoveto
          -4 callgsubr
        </CharString>
        <CharString name="periodcentered.lat">
          -301 250 -12 callgsubr
          250 rmoveto
          -4 callgsubr
        </CharString>
        <CharString name="perthousand">
          -80 callgsubr
        </CharString>
        <CharString name="perthousand.heb">
          -25 endchar
        </CharString>
        <CharString name="perthousand.lat">
          645 16 callgsubr
          82 32 callsubr
          101 32 callsubr
          62 32 callsubr
          vstem
          369 667 rmoveto
          -75 -142 rlineto
          8 -18 -20 4 -21 hhcurveto
          -91 -62 -75 -131 -59 12 -48 22 -35 hvcurveto
          -106 -201 rlineto
          64 hlineto
          83 158 rlineto
          -15 23 26 -8 29 hhcurveto
          91 62 76 132 70 -18 54 -30 35 hvcurveto
          93 177 rlineto
          -277 -336 rmoveto
          101 33 45 46 11 10 -2 -5 9 vhcurveto
          -105 -197 rlineto
          -2 17 -2 19 22 vvcurveto
          158 hmoveto
          -101 -33 -47 -46 -18 -16 7 15 -12 vhcurveto
          113 214 rlineto
          8 -22 4 -29 -37 vvcurveto
          328 71 rmoveto
          -16 callsubr
          -16 callgsubr
          hvcurveto
          368 hmoveto
          -16 callsubr
          -16 callgsubr
          hvcurveto
          -368 -354 rmoveto
          -51 callsubr
          368 hmoveto
          -51 callsubr
          endchar
        </CharString>
        <CharString name="pi">
          35 -12 83 336 82 hstem
          132 95 151 95 vstem
          496 -12 rmoveto
          31 25 6 6 17 hvcurveto
          -13 76 rlineto
          -3 -17 -12 -2 -9 hhcurveto
          -30 -15 13 34 40 1 146 6 103 hvcurveto
          96 82 -484 hlineto
          -71 -5 rlineto
          -77 111 vlineto
          -125 -12 -146 -23 -136 vhcurveto
          102 -6 rlineto
          14 134 14 148 131 vvcurveto
          156 hlineto
          -1 -99 -4 -140 -44 vvcurveto
          -86 31 -50 87 vhcurveto
          endchar
        </CharString>
        <CharString name="plus">
          -59 293 74 hstem
          214 78 vstem
          214 101 rmoveto
          78 192 180 74 -180 192 -78 -192 -180 -74 180 hlineto
          endchar
        </CharString>
        <CharString name="plusminus">
          -59 0 74 227 74 hstem
          214 78 vstem
          214 136 rmoveto
          78 165 180 74 -180 184 -78 -184 -180 -74 180 hlineto
          -180 -301 rmoveto
          -15 callsubr
          endchar
        </CharString>
        <CharString name="popdirectionformat">
          765 229 hstem
          -19 36 vstem
          -19 765 rmoveto
          36 160 hlineto
          62 -64 25 26 -104 107 -104 -107 25 -26 60 63 rlineto
          endchar
        </CharString>
        <CharString name="product">
          119 548 89 7 callsubr
          307 103 vstem
          86 -120 rmoveto
          102 668 307 -668 103 757 -512 hlineto
          endchar
        </CharString>
        <CharString name="q">
          3 callsubr
          382 -199 rmoveto
          101 hlineto
          hintmask 11011000
          688 -80 vlineto
          hintmask 10111000
          -9 -47 rlineto
          -3 hlineto
          39 -42 -39 20 -56 hhcurveto
          -109 -100 -98 -159 -162 79 -94 122 53 50 28 36 37 hvcurveto
          -4 -85 rlineto
          -112 105 rmoveto
          -77 -44 62 111 106 56 66 69 36 35 -12 -33 37 hvcurveto
          -240 vlineto
          -41 -36 -35 -19 -41 hhcurveto
          endchar
        </CharString>
        <CharString name="question">
          -76 callgsubr
        </CharString>
        <CharString name="question.lat">
          -76 callgsubr
        </CharString>
        <CharString name="questiondown">
          -79 callsubr
        </CharString>
        <CharString name="questiondown.lat">
          -79 callsubr
        </CharString>
        <CharString name="quotedbl">
          -107 409 280 hstem
          80.5 102 92 102 vstem
          102 409 -36 callsubr
          214 -176 -36 callsubr
          endchar
        </CharString>
        <CharString name="quotedbl.lat">
          -107 endchar
        </CharString>
        <CharString name="quotedblbase">
          -107 18 19 callsubr
          138 -70 callgsubr
        </CharString>
        <CharString name="quotedblbase.lat">
          -107 endchar
        </CharString>
        <CharString name="quotedblleft">
          -107 402 33 callgsubr
          56 63 131 63 vstem
          199 646 rmoveto
          -26 46 rlineto
          -77 -42 -40 -62 -84 vvcurveto
          -65 26 -37 46 35 25 24 39 36 -28 21 -32 -3 -3 0 -1 -3 vhcurveto
          58 27 35 53 32 vhcurveto
          123 -124 -68 callgsubr
        </CharString>
        <CharString name="quotedblleft.lat">
          -107 endchar
        </CharString>
        <CharString name="quotedblright">
          -107 578 19 callsubr
          698 -70 callgsubr
        </CharString>
        <CharString name="quotedblright.lat">
          -107 endchar
        </CharString>
        <CharString name="quoteleft">
          -301 402 33 callgsubr
          56 63 vstem
          128 522 -68 callgsubr
        </CharString>
        <CharString name="quoteleft.lat">
          -301 402 33 callgsubr
          56 63 vstem
          128 522 -68 callgsubr
        </CharString>
        <CharString name="quoteright">
          -301 578 33 callgsubr
          145 63 vstem
          136 698 -34 callsubr
          endchar
        </CharString>
        <CharString name="quoteright.lat">
          -301 578 33 callgsubr
          145 63 vstem
          136 698 -34 callsubr
          endchar
        </CharString>
        <CharString name="quotesinglbase">
          -301 18 33 callgsubr
          145 63 vstem
          136 138 -34 callsubr
          endchar
        </CharString>
        <CharString name="quotesinglbase.lat">
          -301 18 33 callgsubr
          145 63 vstem
          136 138 -34 callsubr
          endchar
        </CharString>
        <CharString name="quotesingle">
          -301 409 280 hstem
          80.5 102 vstem
          102 409 -36 callsubr
          endchar
        </CharString>
        <CharString name="quotesingle.lat">
          -301 409 280 hstem
          80.5 102 vstem
          102 409 -36 callsubr
          endchar
        </CharString>
        <CharString name="r">
          -203 411 78 -78 90 39 callsubr
          hintmask 01100000
          77 hmoveto
          101 305 hlineto
          78 31 48 28 40 hhcurveto
          20 12 -3 -5 17 hvcurveto
          18 88 rlineto
          7 -15 -15 3 -24 hhcurveto
          -53 -51 -37 -63 -35 hvcurveto
          -3 hlineto
          hintmask 10100000
          -8 88 18 callgsubr
        </CharString>
        <CharString name="radical">
          1 -91 106 -85 -21 hstemhm
          37 534 hintmask 01100000
          280 -91 rmoveto
          74 hlineto
          217 911 rlineto
          -71 hlineto
          hintmask 10100000
          -172 -736 -5 -23 -4 -23 -4 -23 -6 callsubr
          -5 23 -6 23 -7 23 -111 331 rcurveline
          -145 -62 21 -52 72 31 rlineto
          endchar
        </CharString>
        <CharString name="registered">
          -85 callgsubr
        </CharString>
        <CharString name="registered.lat">
          -85 callgsubr
        </CharString>
        <CharString name="righttoleftembed">
          21 callsubr
          41 88 27 callsubr
          75 36 -76 37 callgsubr
          185 -17 rmoveto
          88 36 -88 hlineto
          endchar
        </CharString>
        <CharString name="ring">
          -19 557 42 116 42 hstem
          157 63 106 63 vstem
          273 -40 callgsubr
          endchar
        </CharString>
        <CharString name="ringhalfleftmod">
          -396 endchar
        </CharString>
        <CharString name="ringhalfrightmod">
          -396 endchar
        </CharString>
        <CharString name="rsmall">
          -59 183 72 158 76 hstem
          77 101 170 101 vstem
          479 hmoveto
          -128 199 rlineto
          55 21 43 44 75 vvcurveto
          112 -83 38 -107 vhcurveto
          -182 -489 101 183 80 hlineto
          109 -183 rlineto
          -189 255 rmoveto
          158 66 vlineto
          66 38 -24 -52 -52 -38 -30 -66 hvcurveto
          endchar
        </CharString>
        <CharString name="rsmallinverted">
          -59 0 77 160 71 hstem
          58 100 170 101 vstem
          328 489 rmoveto
          -181 -80 vlineto
          -108 181 rlineto
          -113 hlineto
          128 -197 rlineto
          -55 -22 -42 -44 -75 vvcurveto
          -112 82 -39 108 vhcurveto
          181 489 hlineto
          -101 -412 rmoveto
          -65 hlineto
          -67 -38 24 53 52 38 31 67 hvcurveto
          65 hlineto
          endchar
        </CharString>
        <CharString name="s">
          9 callgsubr
          210 -12 -100 callgsubr
          endchar
        </CharString>
        <CharString name="sacute">
          9 callgsubr
          221 -75 callsubr
          40 -635 -100 callgsubr
          endchar
        </CharString>
        <CharString name="scaron">
          -139 -12 77 359 77 74 -1 callgsubr
          50 96 153 96 vstem
          177 -85 callsubr
          145 -724 -100 callgsubr
          endchar
        </CharString>
        <CharString name="section">
          -59 endchar
        </CharString>
        <CharString name="section.lat">
          -59 endchar
        </CharString>
        <CharString name="semicolon">
          -301 1 130 207 143 hstemhm
          64 136 -57 72 hintmask 00000000
          hintmask 11100000
          132 338 -90 callsubr
          hintmask 11010000
          4 -207 -35 callgsubr
        </CharString>
        <CharString name="seven">
          -76 callsubr
        </CharString>
        <CharString name="seven.heb">
          -76 callsubr
        </CharString>
        <CharString name="seven.lat">
          -76 callsubr
        </CharString>
        <CharString name="seven.pnumheb">
          -60 endchar
        </CharString>
        <CharString name="seven.pnumlat">
          -67 551 86 hstem
          162 103 vstem
          162 hmoveto
          103 hlineto
          11 249 26 138 148 188 rrcurveto
          62 -406 -86 294 vlineto
          -122 -172 -43 -147 -11 -232 rrcurveto
          endchar
        </CharString>
        <CharString name="six">
          -99 callgsubr
        </CharString>
        <CharString name="six.heb">
          -99 callgsubr
        </CharString>
        <CharString name="six.lat">
          -99 callgsubr
        </CharString>
        <CharString name="six.pnumheb">
          -59 endchar
        </CharString>
        <CharString name="six.pnumlat">
          -59 endchar
        </CharString>
        <CharString name="slash">
          -14 callgsubr
        </CharString>
        <CharString name="slash.lat">
          -14 callgsubr
        </CharString>
        <CharString name="space">
          -365 endchar
        </CharString>
        <CharString name="sterling">
          -86 callsubr
        </CharString>
        <CharString name="sterling.heb">
          -25 endchar
        </CharString>
        <CharString name="sterling.lat">
          -86 callsubr
        </CharString>
        <CharString name="summation">
          -52 -120 86 585 86 hstemhm
          23 485 -474 125 hintmask 11100000
          23 -120 rmoveto
          485 86 -358 4 hlineto
          208 289 rlineto
          hintmask 11010000
          -199 288 rlineto
          4 322 86 -447 -63 vlineto
          218 -316 -229 -315 rlineto
          endchar
        </CharString>
        <CharString name="t">
          -214 -12 81 339 81 hstem
          93 101 vstem
          241 -12 -93 callgsubr
          endchar
        </CharString>
        <CharString name="theta">
          -35 -12 83 567 83 hstem
          56 55 308 55 vstem
          265 -12 rmoveto
          128 81 116 253 240 -81 124 -128 -128 -81 -124 -240 -253 81 -116 128 hvcurveto
          83 vmoveto
          -63 -47 68 218 208 47 73 63 63 47 -73 -208 -218 -47 -68 -63 hvcurveto
          -154 252 rmoveto
          70 308 -70 vlineto
          endchar
        </CharString>
        <CharString name="thorn">
          -5 -12 -10 callsubr
          hstem
          77 101 233 104 vstem
          77 -199 rmoveto
          101 159 hlineto
          -2 80 rlineto
          -33 41 41 -19 47 34 callsubr
          -71 98 -127 -51 -49 -26 -33 -41 hvcurveto
          2 80 rlineto
          187 -101 vlineto
          208 -637 rmoveto
          -30 -38 12 33 -39 hvcurveto
          240 vlineto
          40 42 37 16 callsubr
          endchar
        </CharString>
        <CharString name="three">
          -103 callgsubr
        </CharString>
        <CharString name="three.heb">
          -103 callgsubr
        </CharString>
        <CharString name="three.lat">
          -103 callgsubr
        </CharString>
        <CharString name="three.pnumheb">
          -59 endchar
        </CharString>
        <CharString name="three.pnumlat">
          -103 callgsubr
        </CharString>
        <CharString name="three.sups">
          -195 endchar
        </CharString>
        <CharString name="three.supsheb">
          -115 endchar
        </CharString>
        <CharString name="three.supslat">
          -135 endchar
        </CharString>
        <CharString name="threequarters">
          254 667 -20 hstem
          217 423 vstem
          217 -78 callsubr
          endchar
        </CharString>
        <CharString name="threequarters.heb">
          -25 endchar
        </CharString>
        <CharString name="threequarters.lat">
          254 99 53 -29 60 127 47 -32 65 87 60 130 -20 hstemhm
          233 76 -61 76 343 69 hintmask 1010110110000000
          576 8 callgsubr
          hintmask 0110110110000000
          -316 -426 rmoveto
          50 -37 33 -43 13 vhcurveto
          hintmask 1010111010000000
          39 19 26 30 45 vvcurveto
          66 -59 40 -69 -56 -40 -24 -41 -36 vhcurveto
          45 -40 rlineto
          26 21 26 19 28 hhcurveto
          39 25 -22 -34 -38 -36 -26 -62 hvcurveto
          -47 vlineto
          hintmask 0110110110000000
          73 40 -22 -42 -40 -32 -23 -40 -38 -32 20 35 -24 hvcurveto
          -49 -38 rlineto
          -46 31 53 -31 65 hhcurveto
          77 65 46 72 hvcurveto
          hintmask 1001110110000000
          470 -89 -38 callgsubr
        </CharString>
        <CharString name="tilde">
          -19 576 -15 callgsubr
          95 66 224 66 hintmask 10011100
          344 -56 callgsubr
        </CharString>
        <CharString name="tildecomb">
          576 -15 callgsubr
          -178 66 224 66 hintmask 10011100
          71 -56 callgsubr
        </CharString>
        <CharString name="tildecomb.cap">
          704 12 callgsubr
          -183 67 232 67 hintmask 00000000
          hintmask 10011000
          74 704 rmoveto
          -57 callsubr
          hintmask 01111000
          -63 -42 -45 -84 -4 hvcurveto
          67 -5 rlineto
          41 4 17 20 24 hhcurveto
          hintmask 10011000
          25 callsubr
          endchar
        </CharString>
        <CharString name="trademark">
          -81 callsubr
        </CharString>
        <CharString name="trademark.lat">
          -81 callsubr
        </CharString>
        <CharString name="two">
          -93 callsubr
        </CharString>
        <CharString name="two.heb">
          -93 callsubr
        </CharString>
        <CharString name="two.lat">
          -93 callsubr
        </CharString>
        <CharString name="two.pnumheb">
          -55 endchar
        </CharString>
        <CharString name="two.pnumlat">
          -57 0 86 482 81 hstem
          332 98 vstem
          44 hmoveto
          412 86 -158 hlineto
          -32 -41 -3 -3 -34 hvcurveto
          135 144 104 117 116 vvcurveto
          116 -74 76 -120 -84 -58 -35 -63 -58 vhcurveto
          57 -56 rlineto
          40 35 44 33 51 hhcurveto
          74 35 -46 -70 -100 -107 -113 -181 -180 hvcurveto
          endchar
        </CharString>
        <CharString name="two.sups">
          -195 endchar
        </CharString>
        <CharString name="two.supsheb">
          -115 endchar
        </CharString>
        <CharString name="two.supslat">
          -135 endchar
        </CharString>
        <CharString name="u">
          -2 callgsubr
          221 -12 -100 callsubr
        </CharString>
        <CharString name="uacute">
          -2 callgsubr
          274 -75 callsubr
          -2 -635 -100 callsubr
        </CharString>
        <CharString name="ucircumflex">
          -14 -12 87 598 68 hstem
          71 101 201 101 vstem
          159 -87 callgsubr
          103 -616 -100 callsubr
        </CharString>
        <CharString name="udieresis">
          -14 -12 87 507 112 hstemhm
          71 101 -47 -7 callsubr
          -64 101 hintmask 00000000
          hintmask 11011000
          181 -98 callsubr
          hintmask 11100100
          -160 -594 -100 callsubr
        </CharString>
        <CharString name="ugrave">
          -2 callgsubr
          288 -56 callsubr
          97 -739 -100 callsubr
        </CharString>
        <CharString name="umacron">
          -14 -12 87 523 68 hstemhm
          71 101 -28 274 -45 101 hintmask 00000000
          hintmask 11010000
          144 598 rmoveto
          hintmask 11101000
          274 68 hlineto
          hintmask 11010000
          -274 hlineto
          hintmask 11101000
          77 -678 -100 callsubr
        </CharString>
        <CharString name="underscore">
          -65 -130 63 hstem
          12 476 vstem
          12 -130 rmoveto
          476 63 -476 hlineto
          endchar
        </CharString>
        <CharString name="uni00A0">
          -361 endchar
        </CharString>
        <CharString name="uni00AD">
          -62 callgsubr
        </CharString>
        <CharString name="uni018F">
          98 -12 84 208 76 227 84 hstem
          56 104 350 103 vstem
          334 667 rmoveto
          -93 -72 -33 -45 -48 hvcurveto
          48 -70 rlineto
          36 38 53 28 64 hhcurveto
          117 64 -78 -149 6 hvcurveto
          -453 hlineto
          -1 -11 -1 -11 -10 vvcurveto
          -209 103 -127 171 171 112 122 219 219 -108 119 -171 vhcurveto
          -4 -595 rmoveto
          -98 -66 73 135 -6 hvcurveto
          350 hlineto
          -138 -13 -66 -70 -101 hhcurveto
          endchar
        </CharString>
        <CharString name="uni0250">
          -47 -12 82 351 68 -68 80 hstemhm
          70 101 195 98 hintmask 10111000
          272 -12 rmoveto
          73 67 32 32 47 hvcurveto
          -38 68 rlineto
          -26 -40 -44 -24 -51 hhcurveto
          -87 -26 53 54 -2 hvcurveto
          204 23 89 62 110 vvcurveto
          80 -53 49 -79 -65 -58 -31 -47 -45 vhcurveto
          -3 hlineto
          hintmask 11011000
          -8 66 rlineto
          -83 -287 hlineto
          hintmask 10111000
          -132 63 -82 139 vhcurveto
          -101 254 rmoveto
          110 vlineto
          47 44 40 22 42 hhcurveto
          39 30 -19 -45 -57 -49 -39 -146 -19 hvcurveto
          endchar
        </CharString>
        <CharString name="uni0254">
          -106 -21 callgsubr
          hstem
          312 104 vstem
          183 -12 rmoveto
          130 103 94 162 165 -105 92 -120 -72 -50 -25 -31 -37 hvcurveto
          50 -66 rlineto
          25 28 27 14 43 hhcurveto
          75 57 -69 -105 -104 -58 -69 -81 -41 -37 20 25 -29 hvcurveto
          -42 -67 rlineto
          -40 45 57 -21 57 hhcurveto
          endchar
        </CharString>
        <CharString name="uni0259">
          -63 -12 79 140 70 145 79 hstem
          37 88 236 98 vstem
          241 -12 26 callsubr
          98 98 159 161 -94 95 -125 -66 -58 -18 -32 -48 hvcurveto
          35 -68 rlineto
          24 37 38 15 46 hhcurveto
          80 49 -56 -89 7 hvcurveto
          -318 hlineto
          -3 -12 -2 -21 -20 vvcurveto
          -143 76 -93 128 vhcurveto
          -2 79 rmoveto
          -72 -42 49 91 hvcurveto
          236 hlineto
          -91 -9 -46 -49 -67 hhcurveto
          endchar
        </CharString>
        <CharString name="uni025B">
          -119 -12 -50 callsubr
          hstemhm
          49 100 -75 100 hintmask 11110000
          255 -12 rmoveto
          65 49 14 40 57 hvcurveto
          -41 66 rlineto
          -29 -42 -37 -12 -40 hhcurveto
          -69 -48 30 49 48 39 24 71 hvcurveto
          74 70 hlineto
          hintmask 11101000
          -59 hlineto
          -68 -32 26 40 44 38 24 50 41 32 -13 -22 35 hvcurveto
          39 67 rlineto
          30 -44 -49 17 -58 hhcurveto
          -98 -86 -42 -92 -44 28 -44 54 -18 hvcurveto
          -4 vlineto
          hintmask 11110000
          -58 -15 -49 -37 -69 vvcurveto
          -93 95 -55 111 vhcurveto
          endchar
        </CharString>
        <CharString name="uni026B">
          -51 callgsubr
        </CharString>
        <CharString name="uni0283">
          -309 -211 81 771 81 -13 -20 hstemhm
          78 101 hintmask 10110000
          33 5 callsubr
          hintmask 11010000
          17 callgsubr
          hintmask 10110000
          19 76 rlineto
          hintmask 11010000
          7 -16 -21 6 -29 hhcurveto
          -115 -41 -71 -102 hvcurveto
          -588 vlineto
          -32 callgsubr
          hintmask 10110000
          10 callgsubr
          endchar
        </CharString>
        <CharString name="uni028E">
          -82 639 82 -10 -20 hstemhm
          12 459 hintmask 10100000
          12 hmoveto
          98 hlineto
          79 253 13 44 13 49 13 45 rlinecurve
          4 hlineto
          15 -46 15 -49 15 -43 91 -253 rcurveline
          103 hlineto
          -194 486 20 60 rlineto
          54 18 32 39 53 hhcurveto
          12 15 -4 -3 9 hvcurveto
          hintmask 01100000
          19 79 rlineto
          hintmask 10100000
          6 -17 -19 4 -25 hhcurveto
          -103 -51 -70 -105 -38 hvcurveto
          endchar
        </CharString>
        <CharString name="uni0292">
          -130 -211 83 257 70 209 81 hstem
          314 102 vstem
          203 -211 rmoveto
          112 101 80 142 114 -75 81 -124 -7 hvcurveto
          177 236 rlineto
          54 -352 -81 230 vlineto
          -180 -241 37 -53 rlineto
          10 23 11 5 28 hhcurveto
          78 45 -45 -76 -83 -53 -53 -68 -64 -43 28 31 -34 hvcurveto
          -48 -64 rlineto
          -40 43 60 -38 96 hhcurveto
          endchar
        </CharString>
        <CharString name="uni0294">
          -139 638 83 hstem
          141 101 63 102 vstem
          141 hmoveto
          101 280 hlineto
          96 68 69 64 113 vvcurveto
          130 -94 66 -115 -95 -63 -42 -46 -43 vhcurveto
          52 -65 rlineto
          37 33 44 33 63 hhcurveto
          73 43 -44 -72 -79 -48 -52 -116 -69 hvcurveto
          endchar
        </CharString>
        <CharString name="uni0295">
          -104 638 83 hstem
          34 102 63 101 vstem
          199 hmoveto
          101 322 hlineto
          -115 69 -49 52 79 vvcurveto
          72 47 44 79 59 41 -33 -37 30 vhcurveto
          52 65 rlineto
          46 -41 -59 42 -91 hhcurveto
          -120 -99 -66 -130 -113 69 -64 96 -68 hvcurveto
          endchar
        </CharString>
        <CharString name="uni02A4">
          335 endchar
        </CharString>
        <CharString name="uni02A6">
          -70 endchar
        </CharString>
        <CharString name="uni02A7">
          -70 -211 81 118 81 339 81 152 81 -13 -20 hstemhm
          93 101 233 101 hintmask 10101110
          382 5 callsubr
          hintmask 10110110
          17 callgsubr
          hintmask 10101110
          19 76 rlineto
          hintmask 10110110
          7 -16 -21 6 -29 hhcurveto
          -115 -41 -71 -102 hvcurveto
          -588 vlineto
          -32 callgsubr
          hintmask 10101110
          10 callgsubr
          hintmask 11101110
          -141 199 -93 callgsubr
          endchar
        </CharString>
        <CharString name="uni02B9">
          -301 endchar
        </CharString>
        <CharString name="uni02C8">
          -441 535 198 hstem
          23 78 vstem
          26 535 rmoveto
          72 hlineto
          6 198 rlineto
          -84 hlineto
          endchar
        </CharString>
        <CharString name="uni02D0">
          -301 145 181 -152 124 hstemhm
          101 62 hintmask 00000000
          hintmask 01100000
          180 236 rmoveto
          14 62 rlineto
          -28 hlineto
          hintmask 10100000
          -6 28 rlineto
          -56 hlineto
          hintmask 01100000
          -6 -28 rlineto
          -28 hlineto
          14 -62 -14 -62 rlineto
          28 hlineto
          hintmask 10100000
          6 -29 rlineto
          56 hlineto
          hintmask 01100000
          6 29 rlineto
          28 hlineto
          endchar
        </CharString>
        <CharString name="uni0302">
          673 68 hstem
          -163 326 vstem
          -122 -87 callgsubr
          endchar
        </CharString>
        <CharString name="uni0302.cap">
          785 52 hstem
          -154 308 vstem
          -110 -80 callsubr
          endchar
        </CharString>
        <CharString name="uni0304">
          598 68 hstem
          -137 274 vstem
          -137 -12 callsubr
          endchar
        </CharString>
        <CharString name="uni0304.cap">
          731 68 hstem
          -139 278 vstem
          -139 -34 callgsubr
          endchar
        </CharString>
        <CharString name="uni0306">
          571 66 hstem
          -160 22 callsubr
          vstem
          571 -33 callsubr
        </CharString>
        <CharString name="uni0306.cap">
          703 62 hstem
          92 59 vstem
          703 vmoveto
          95 48 56 75 8 hvcurveto
          -59 10 rlineto
          -45 -8 -30 -34 -54 hhcurveto
          -54 -30 34 45 -8 hvcurveto
          -59 -10 rlineto
          -75 8 48 -56 95 hhcurveto
          endchar
        </CharString>
        <CharString name="uni0307">
          581 121 hstem
          -62 124 vstem
          581 vmoveto
          -104 callgsubr
          endchar
        </CharString>
        <CharString name="uni0307.cap">
          710 121 hstem
          -65 130 vstem
          710 vmoveto
          1 callgsubr
          endchar
        </CharString>
        <CharString name="uni0308">
          582 112 hstem
          -156 -7 callsubr
          vstem
          -100 38 callsubr
          32 24 25 31 32 -24 24 -32 -23 callsubr
          endchar
        </CharString>
        <CharString name="uni0308.cap">
          711 110 hstem
          -160 13 callgsubr
          vstem
          -105 -101 callgsubr
          endchar
        </CharString>
        <CharString name="uni030A">
          557 42 116 42 hstem
          -116 63 106 63 vstem
          557 vmoveto
          73 43 43 57 57 -43 43 -73 -73 -43 -43 -57 -57 43 -43 73 hvcurveto
          42 vmoveto
          -30 -23 23 35 35 23 23 30 30 23 -23 -35 -35 -23 -23 -30 hvcurveto
          endchar
        </CharString>
        <CharString name="uni030A.cap">
          698 42 102 42 hstem
          -102 53 97 54 vstem
          698 vmoveto
          59 43 37 56 57 -43 36 -59 -60 -42 -36 -57 -56 42 -37 60 hvcurveto
          42 vmoveto
          -27 -22 19 32 32 22 19 27 26 22 -19 -32 -32 -22 -19 -26 hvcurveto
          endchar
        </CharString>
        <CharString name="uni030B">
          567 200 hstem
          -106 316 vstem
          -51 -18 callsubr
        </CharString>
        <CharString name="uni030B.cap">
          700 180 hstem
          -112 330 vstem
          -60 700 24 callgsubr
          220 -25 24 callgsubr
          endchar
        </CharString>
        <CharString name="uni030C">
          575 -1 callgsubr
          -163 326 vstem
          -51 -85 callsubr
          endchar
        </CharString>
        <CharString name="uni030C.cap">
          705 52 hstem
          -154 308 vstem
          -54 -75 callgsubr
          endchar
        </CharString>
        <CharString name="uni031E">
          -146 54 hstem
          -29 58 vstem
          -29 -251 rmoveto
          58 105 70 54 -198 -54 70 hlineto
          endchar
        </CharString>
        <CharString name="uni0327">
          30 callsubr
          hstem
          7 76 vstem
          -91 -39 callsubr
        </CharString>
        <CharString name="uni032E">
          -232 66 hstem
          -160 22 callsubr
          vstem
          -232 -33 callsubr
        </CharString>
        <CharString name="uni0331">
          18 callsubr
          hstem
          -137 274 vstem
          -137 -176 -68 callsubr
        </CharString>
        <CharString name="uni0361">
          653 68 hstem
          -455 910 vstem
          -427 546 rmoveto
          76 128 160 31 139 hhcurveto
          139 160 -31 -76 128 hvcurveto
          28 49 rlineto
          83 -135 -154 43 -166 hhcurveto
          -166 -154 -43 -83 -135 hvcurveto
          endchar
        </CharString>
        <CharString name="uni0394.math">
          38 endchar
        </CharString>
        <CharString name="uni03A9.math">
          123 endchar
        </CharString>
        <CharString name="uni03BC.math">
          6 endchar
        </CharString>
        <CharString name="uni05B0">
          -238 67 32 66 13 callsubr
          -73 rmoveto
          -95 callsubr
          -98 vmoveto
          -55 callsubr
        </CharString>
        <CharString name="uni05B1">
          -238 67 32 66 hstemhm
          32 63 -12 63 -10 63 41 63 hintmask 11101100
          64 -73 rmoveto
          -95 callsubr
          104 hmoveto
          -95 callsubr
          104 hmoveto
          -95 callsubr
          hintmask 11010100
          -157 -98 rmoveto
          -18 -14 -18 -16 -3 callsubr
          17 -19 hvcurveto
          157 hmoveto
          -55 callsubr
        </CharString>
        <CharString name="uni05B2">
          -238 67 32 66 -49 37 hstemhm
          32 162 35 63 hintmask 00000000
          hintmask 11011000
          261 -73 rmoveto
          -95 callsubr
          hintmask 10111000
          -67 -12 22 callgsubr
          162 hlineto
          67 -49 rmoveto
          -55 callsubr
        </CharString>
        <CharString name="uni05B3">
          -238 67 32 66 -49 37 hstemhm
          95.5 35 98.5 63 hintmask 00000000
          hintmask 11011000
          261 -73 rmoveto
          -95 callsubr
          hintmask 10111000
          -67 -12 22 callgsubr
          67 hlineto
          -7 -100 rlineto
          42 hlineto
          -7 100 rlineto
          67 hlineto
          67 -49 rmoveto
          -55 callsubr
        </CharString>
        <CharString name="uni05B4">
          -139 66 13 callsubr
          -73 rmoveto
          -95 callsubr
          endchar
        </CharString>
        <CharString name="uni05B5">
          -139 66 hstem
          32 63 44 63 vstem
          64 -73 rmoveto
          -95 callsubr
          107 hmoveto
          -18 -14 -16 -17 -3 callsubr
          16 -19 hvcurveto
          endchar
        </CharString>
        <CharString name="uni05B6">
          -228 66 23 66 hstemhm
          32 63 -10 63 -9 63 hintmask 01101000
          64 -73 rmoveto
          -95 callsubr
          107 hmoveto
          -18 -14 -16 -17 -3 callsubr
          16 -19 hvcurveto
          hintmask 11010000
          -54 -89 rmoveto
          -19 -13 -16 -16 -92 callsubr
          16 -26 callgsubr
          endchar
        </CharString>
        <CharString name="uni05B7">
          -106 37 hstem
          32 162 vstem
          194 -69 22 callgsubr
          162 hlineto
          endchar
        </CharString>
        <CharString name="uni05B8">
          -106 37 hstem
          95.5 35 vstem
          194 -69 22 callgsubr
          67 hlineto
          -7 -100 rlineto
          42 hlineto
          -7 100 rlineto
          67 hlineto
          endchar
        </CharString>
        <CharString name="uni05B9">
          513 -1 callsubr
          580 -103 callsubr
        </CharString>
        <CharString name="uni05BA">
          513 -1 callsubr
          513 -67 callsubr
          endchar
        </CharString>
        <CharString name="uni05BB">
          -267 66 -2 66 -2 66 hstemhm
          32 63 5 63 5 63 hintmask 10110100
          64 -73 rmoveto
          -95 callsubr
          hintmask 01001000
          68 -64 rmoveto
          -95 callsubr
          hintmask 10110100
          68 -64 rmoveto
          -95 callsubr
          endchar
        </CharString>
        <CharString name="uni05BC">
          256 -1 callsubr
          323 -103 callsubr
        </CharString>
        <CharString name="uni05BE">
          -244 0 callsubr
          45 231 vstem
          45 480 rmoveto
          231 82 -231 hlineto
          endchar
        </CharString>
        <CharString name="uni05BF">
          528 45 hstem
          32 189 vstem
          221 573 rmoveto
          -189 -45 189 hlineto
          endchar
        </CharString>
        <CharString name="uni05C1">
          -24 callsubr
        </CharString>
        <CharString name="uni05C2">
          -24 callsubr
        </CharString>
        <CharString name="uni05C7">
          -106 37 hstem
          32 98 vstem
          130 -69 rmoveto
          -98 -37 41 hlineto
          -13 -100 rlineto
          42 hlineto
          -13 100 rlineto
          41 hlineto
          endchar
        </CharString>
        <CharString name="uni05D0">
          21 0 562 hstem
          28 525 vstem
          553 -91 callsubr
          endchar
        </CharString>
        <CharString name="uni05D1">
          -31 11 callgsubr
          323 107 vstem
          430 -32 callsubr
          endchar
        </CharString>
        <CharString name="uni05D2">
          -170 -16 590 hstem
          212 -58 callsubr
          endchar
        </CharString>
        <CharString name="uni05D3">
          -24 0 callsubr
          287 -22 callgsubr
          endchar
        </CharString>
        <CharString name="uni05D4">
          -7 0 callsubr
          55 107 232 -39 callgsubr
          endchar
        </CharString>
        <CharString name="uni05D5">
          -325 0 562 hstem
          70 107 vstem
          70 hmoveto
          -17 callsubr
          endchar
        </CharString>
        <CharString name="uni05D6">
          -177 0 callsubr
          126 107 vstem
          126 -22 callsubr
          87 82 -298 -82 109 hlineto
          -17 -25 -11 -41 -51 vvcurveto
          endchar
        </CharString>
        <CharString name="uni05D7">
          13 0 callsubr
          59 107 244 107 vstem
          347 562 rmoveto
          -288 -43 hlineto
          -519 107 480 154 vlineto
          59 31 -37 -73 hvcurveto
          -370 107 365 vlineto
          136 -66 61 -104 vhcurveto
          endchar
        </CharString>
        <CharString name="uni05D8">
          5 486.5 84 hstem
          430 -59 callgsubr
          endchar
        </CharString>
        <CharString name="uni05D9">
          -325 210 352 hstem
          70 107 vstem
          70 210 rmoveto
          106 20 1 63 rlineto
          152 vlineto
          -44 callgsubr
          endchar
        </CharString>
        <CharString name="uni05DA">
          -58 0 callsubr
          338 -20 callsubr
          endchar
        </CharString>
        <CharString name="uni05DB">
          -87 11 callgsubr
          323 107 vstem
          38 -42 callgsubr
          endchar
        </CharString>
        <CharString name="uni05DC">
          -79 480 82 -82 237 hstemhm
          38 97 hintmask 10100000
          135 562 rmoveto
          hintmask 01100000
          155 -97 vlineto
          hintmask 10100000
          -5 callsubr
          endchar
        </CharString>
        <CharString name="uni05DD">
          20 11 callgsubr
          65 107 246 107 vstem
          355 562 rmoveto
          -183 hlineto
          -107 -562 25 hlineto
          328 hlineto
          107 375 hlineto
          -43 callgsubr
          -183 -480 rmoveto
          398 156 vlineto
          -27 callsubr
          -298 vlineto
          endchar
        </CharString>
        <CharString name="uni05DE">
          24 callsubr
          411.65 86 hstem
          473 -72 callgsubr
          endchar
        </CharString>
        <CharString name="uni05DF">
          -325 -200 762 hstem
          70 107 vstem
          70 -200 rmoveto
          107 645 hlineto
          -44 callgsubr
          endchar
        </CharString>
        <CharString name="uni05E0">
          -191 0 82 hstem
          206 107 vstem
          44 -25 callsubr
          endchar
        </CharString>
        <CharString name="uni05E1">
          18 -10 97 393 82 hstem
          427 106 vstem
          533 -64 callsubr
          endchar
        </CharString>
        <CharString name="uni05E2">
          -11 -33 595 hstem
          400 106 vstem
          400 562 rmoveto
          -1 -272 2 -123 -116 -56 -111 451 rcurveline
          -107 hlineto
          123 -479 -169 -32 15 -84 188 37 270 60 11 158 1 340 rlinecurve
          endchar
        </CharString>
        <CharString name="uni05E3">
          -10 0 callsubr
          53.62 95.92 235.46 107 vstem
          288 -54 callgsubr
          endchar
        </CharString>
        <CharString name="uni05E4">
          -17 11 callgsubr
          56.06 95.09 244.85 -67 callgsubr
          endchar
        </CharString>
        <CharString name="uni05E5">
          -69 -200 762 hstem
          40 433 vstem
          473 562 rmoveto
          -101 hlineto
          -128 -312 -101 312 rlineto
          -103 hlineto
          246 -762 rlineto
          103 hlineto
          -103 318 rlineto
          endchar
        </CharString>
        <CharString name="uni05E6">
          -29 0 82 hstem
          35 454 vstem
          489 -24 callgsubr
          -141 241 rlineto
          endchar
        </CharString>
        <CharString name="uni05E7">
          2 -1 83 398 82 hstem
          52 107 243.5 -60 callsubr
          endchar
        </CharString>
        <CharString name="uni05E8">
          -85 0 callsubr
          310 107 vstem
          310 hmoveto
          107 375 hlineto
          -43 callgsubr
          -212 -82 185 hlineto
          -27 callsubr
          endchar
        </CharString>
        <CharString name="uni05E9">
          91 -10 91 hstem
          29 callgsubr
          vstem
          604 408 -104 callsubr
          endchar
        </CharString>
        <CharString name="uni05EA">
          53 0 callsubr
          118 106 227 -49 callgsubr
          endchar
        </CharString>
        <CharString name="uni1E06">
          28 18 callsubr
          108 30 callgsubr
          -19 274 -24 100 -64 100 hintmask 11111001
          -5 callgsubr
          hintmask 11111010
          -41 callgsubr
          hintmask 11111001
          33 callsubr
          hintmask 11110101
          -124 -256 -68 callsubr
        </CharString>
        <CharString name="uni1E07">
          -6 18 callsubr
          96 40 callgsubr
          77 101 -32 274 -9 104 hintmask 11111010
          -69 callsubr
          hintmask 11110100
          -139 -248 -68 callsubr
        </CharString>
        <CharString name="uni1E0C">
          56 -43 callsubr
          91 83 489 83 7 callsubr
          57 124 97 105 vstem
          -77 callsubr
          58 -295 -54 callsubr
          endchar
        </CharString>
        <CharString name="uni1E0D">
          -5 -43 callsubr
          79 29 callsubr
          85 124 24 101 hintmask 11111010
          -92 callgsubr
          hintmask 11111110
          26 -284 -54 callsubr
          endchar
        </CharString>
        <CharString name="uni1E0E">
          56 18 callsubr
          108 83 489 83 hstemhm
          86 102 -18 274 22 105 hintmask 11110100
          -77 callsubr
          hintmask 11101100
          -79 -259 -68 callsubr
        </CharString>
        <CharString name="uni1E0F">
          -5 18 callsubr
          96 29 callsubr
          10 274 -51 101 hintmask 11111010
          -92 callgsubr
          hintmask 11111100
          -111 -248 -68 callsubr
        </CharString>
        <CharString name="uni1E20">
          -11 callgsubr
          64 68 hstemhm
          50 105 63 278 -29 92 hintmask 00000000
          hintmask 11111100
          218 -34 callgsubr
          135 -811 rmoveto
          hintmask 11111010
          -95 callgsubr
          hvcurveto
          hintmask 11111100
          -7 callgsubr
          vhcurveto
          endchar
        </CharString>
        <CharString name="uni1E21">
          -37 callsubr
          97 68 1 callsubr
          -25 274 -60 90 -29 98 hintmask 0000000000000000
          hintmask 1110110001000000
          127 -12 callsubr
          hintmask 1110111000010000
          118 -886 -28 callgsubr
          hintmask 1111010010100000
          -64 callgsubr
          hintmask 1110110100100000
          -57 callgsubr
          hintmask 1110110010100000
          -36 callgsubr
          hintmask 1110111000100000
          11 callsubr
          hintmask 1110111000010000
          9 callsubr
          hintmask 1110110100100000
          -61 callgsubr
          hintmask 1110111000010000
          -79 callgsubr
        </CharString>
        <CharString name="uni1E24">
          93 -43 callsubr
          389 89 268 -20 7 callsubr
          78 124 80 102 vstem
          -41 callsubr
          242 -867 -54 callsubr
          endchar
        </CharString>
        <CharString name="uni1E25">
          -13 -43 callsubr
          505 87 10 callsubr
          50 124 30 101 hintmask 11110100
          77 hmoveto
          -88 callgsubr
          -49 -36 -41 -43 vhcurveto
          4 97 rlineto
          188 -101 vlineto
          hintmask 11111100
          213 -921 -54 callsubr
          endchar
        </CharString>
        <CharString name="uni1E2A">
          93 -232 66 464 89 268 -20 hstemhm
          86 102 -20 22 callsubr
          -18 102 hintmask 11110010
          -41 callsubr
          242 -887 rmoveto
          hintmask 11101100
          -27 callgsubr
          -61 10 rlineto
          -49 -7 -30 -48 -62 hhcurveto
          -61 -31 6 callsubr
          hintmask 11110010
          -53 callgsubr
          endchar
        </CharString>
        <CharString name="uni1E2B">
          -13 -232 66 580 87 10 callsubr
          204 101 -94 61 hintmask 11111000
          77 hmoveto
          -88 callgsubr
          -49 -36 -41 -43 vhcurveto
          4 97 rlineto
          188 -101 vlineto
          213 -941 rmoveto
          -27 callgsubr
          hintmask 11110100
          -61 10 rlineto
          -49 -7 -30 -48 -62 hhcurveto
          -61 -31 6 callsubr
          -61 -10 rlineto
          hintmask 11111000
          -78 5 46 -75 109 hhcurveto
          endchar
        </CharString>
        <CharString name="uni1E32">
          24 -43 callsubr
          746 -20 7 callsubr
          79 124 vstem
          -71 callgsubr
          243 -867 -54 callsubr
          endchar
        </CharString>
        <CharString name="uni1E33">
          -55 -43 callsubr
          800 -20 hstem
          77 99 40 124 vstem
          -70 callsubr
          201 -921 -54 callsubr
          endchar
        </CharString>
        <CharString name="uni1E34">
          24 18 callsubr
          763 -20 hstemhm
          86 102 4 274 hintmask 11100000
          -71 callgsubr
          hintmask 11010000
          106 -831 -68 callsubr
        </CharString>
        <CharString name="uni1E35">
          -55 18 callsubr
          817 -20 hstemhm
          77 99 -35 274 hintmask 11100000
          -70 callsubr
          hintmask 11010000
          64 -885 -68 callsubr
        </CharString>
        <CharString name="uni1E62">
          -25 -43 callsubr
          79 -9 callgsubr
          hstem
          70 103 40 124 62 104 vstem
          273 -12 -102 callsubr
          2 -200 -54 callsubr
          endchar
        </CharString>
        <CharString name="uni1E63">
          -139 -43 callsubr
          79 77 359 77 hstemhm
          50 96 15 124 14 96 hintmask 11110100
          210 -12 -100 callgsubr
          hintmask 11111100
          13 -200 -54 callsubr
          endchar
        </CharString>
        <CharString name="uni1E6C">
          -23 -43 callsubr
          660 86 hstemhm
          209 124 -113 102 hintmask 01010000
          -18 callgsubr
          hintmask 11100000
          51 -781 -54 callsubr
          endchar
        </CharString>
        <CharString name="uni1E6D">
          -214 -43 callsubr
          79 81 339 81 hstemhm
          93 101 -44 124 hintmask 01110000
          241 -12 -93 callgsubr
          hintmask 11101000
          -29 -200 -54 callsubr
          endchar
        </CharString>
        <CharString name="uni1E6E">
          -23 18 callsubr
          677 86 hstem
          220 102 vstem
          -18 callgsubr
          -86 -745 -68 callsubr
        </CharString>
        <CharString name="uni1E6F">
          -214 18 callsubr
          96 81 339 81 hstemhm
          75 274 -256 101 hintmask 11101000
          241 -12 -93 callgsubr
          hintmask 11110000
          -166 -164 -68 callsubr
        </CharString>
        <CharString name="uni1E7E">
          -38 -43 callsubr
          91 101 554 -20 hstem
          201 124 -40 callsubr
          265 -867 -54 callsubr
          endchar
        </CharString>
        <CharString name="uni1E7F">
          -82 -43 callsubr
          91 79 hstem
          181 124 -29 callgsubr
          231 -701 -54 callsubr
          endchar
        </CharString>
        <CharString name="uni1E92">
          -25 -43 callsubr
          91 86 483 86 hstem
          220 124 vstem
          42 hmoveto
          -66 callsubr
          240 -273 -54 callsubr
          endchar
        </CharString>
        <CharString name="uni1E93">
          -130 -43 callsubr
          91 32 callgsubr
          hstem
          170 124 vstem
          33 hmoveto
          -65 callgsubr
          199 -266 -54 callsubr
          endchar
        </CharString>
        <CharString name="uni1E94">
          -25 18 callsubr
          108 86 483 86 hstemhm
          42 458 -355 274 hintmask 11110000
          42 hmoveto
          -66 callsubr
          hintmask 11101000
          103 -237 -68 callsubr
        </CharString>
        <CharString name="uni1E95">
          -130 18 callsubr
          108 32 callgsubr
          hstemhm
          33 377 -315 274 hintmask 11110000
          33 hmoveto
          -65 callgsubr
          hintmask 11101000
          62 -230 -68 callsubr
        </CharString>
        <CharString name="uni1E96">
          -13 18 callsubr
          522 87 10 callsubr
          -25 274 -45 101 hintmask 11110100
          77 hmoveto
          -88 callgsubr
          -49 -36 -41 -43 vhcurveto
          4 97 rlineto
          188 -101 vlineto
          hintmask 11101000
          76 -885 rmoveto
          hintmask 11110100
          274 68 hlineto
          hintmask 11101000
          -274 hlineto
          endchar
        </CharString>
        <CharString name="uni1EA0">
          -13 -43 callsubr
          278 81 306 81 hstem
          212 124 vstem
          552 hmoveto
          -217 655 rlineto
          -118 hlineto
          -217 -655 rlineto
          104 hlineto
          56 187 23 callgsubr
          hlineto
          56 -187 rlineto
          -260 268 rmoveto
          27 88 22 71 20 73 19 74 rlinecurve
          4 hlineto
          20 -73 20 -74 22 -71 26 -88 rcurveline
          -90 -359 -8 callsubr
        </CharString>
        <CharString name="uni1EA1">
          -54 -43 callsubr
          79 80 351 82 hstemhm
          49 98 42 124 29 101 hintmask 11110100
          193 -12 -107 callgsubr
          hintmask 11111100
          27 -280 -54 callsubr
          endchar
        </CharString>
        <CharString name="uni1EB8">
          -32 -43 callsubr
          91 28 callsubr
          40 124 vstem
          86 hmoveto
          -89 callsubr
          204 -867 -54 callsubr
          endchar
        </CharString>
        <CharString name="uni1EB9">
          -63 -43 callsubr
          79 34 callgsubr
          95 60 124 55 88 vstem
          465 270 -106 callgsubr
          -117 -379 -8 callsubr
        </CharString>
        <CharString name="uni1ECC">
          105 -43 callsubr
          79 20 callgsubr
          118 124 118 105 vstem
          335 -12 rmoveto
          -107 callsubr
          -289 vmoveto
          -104 callgsubr
          endchar
        </CharString>
        <CharString name="uni1ECD">
          -19 -43 callsubr
          79 -6 callgsubr
          hstem
          43 104 64 124 64 104 vstem
          273 -12 rmoveto
          -105 callsubr
          -283 vmoveto
          -104 callgsubr
          endchar
        </CharString>
        <CharString name="uni200E">
          21 callsubr
          -114 258 4 callsubr
          -191 -36 191 hlineto
          -63 -66 rlineto
          endchar
        </CharString>
        <CharString name="uni200F">
          21 callsubr
          -144 260 27 callsubr
          192 36 -193 37 callgsubr
          endchar
        </CharString>
        <CharString name="uni2010">
          -62 callgsubr
        </CharString>
        <CharString name="uni2010.lat">
          -62 callgsubr
        </CharString>
        <CharString name="uni202D">
          21 callsubr
          -156 327 vstem
          -31 767 rmoveto
          104 108 -104 109 -26 -27 61 -63 rlineto
          -160 -36 162 hlineto
          -63 -66 rlineto
          123 -25 rmoveto
          105 108 -105 109 -25 -27 82 -82 -82 -83 rlineto
          endchar
        </CharString>
        <CharString name="uni202E">
          895 34 hstem
          -171 328 vstem
          -66 805 rmoveto
          25 26 -80 83 80 81 -25 26 -105 -107 rlineto
          202 -109 rmoveto
          28 26 -63 64 rlineto
          161 34 -161 hlineto
          63 66 -28 26 -102 -107 rlineto
          endchar
        </CharString>
        <CharString name="uni210A">
          1 -210 80 137 83 327 72 -72 84 hstemhm
          48 103 234 101 hintmask 11011100
          260 -210 rmoveto
          144 82 72 122 hvcurveto
          hintmask 11101100
          505 -83 vlineto
          hintmask 11011100
          -8 -45 rlineto
          -3 hlineto
          38 -40 -40 19 -53 hhcurveto
          -109 -102 -97 -152 -150 79 -95 122 54 49 27 34 35 hvcurveto
          -2 -83 rlineto
          -70 -3 -38 -45 -84 hhcurveto
          -45 -50 13 30 -47 hvcurveto
          -36 -69 rlineto
          -35 53 66 -19 59 hhcurveto
          13 300 rmoveto
          -77 -45 63 100 99 56 65 70 36 35 -12 -33 37 hvcurveto
          -221 vlineto
          -42 -37 -34 -19 -41 hhcurveto
          endchar
        </CharString>
        <CharString name="uni2215">
          -80 callgsubr
        </CharString>
        <CharString name="uni2215.lat">
          -80 callgsubr
        </CharString>
        <CharString name="uni2219">
          -55 255 143 hstem
          184 136 vstem
          252 255 rmoveto
          -4 callgsubr
        </CharString>
        <CharString name="uniFB2A">
          91 -10 91 540 67 hstemhm
          29 callgsubr
          -83.5 63 6 callgsubr
          552 621 -67 callsubr
          hintmask 11110000
          52 -213 -104 callsubr
          endchar
        </CharString>
        <CharString name="uniFB2B">
          91 -10 91 540 67 hstem
          56 63 157 41 callgsubr
          vstem
          88 621 -67 callsubr
          516 -213 -104 callsubr
          endchar
        </CharString>
        <CharString name="uniFB2C">
          91 -10 91 152 67 321 67 hstemhm
          276 -29 callsubr
          -83.5 63 hintmask 00000000
          hintmask 11110010
          552 621 -67 callsubr
          hintmask 11110100
          52 -213 -104 callsubr
          hintmask 11101100
          -47 callsubr
        </CharString>
        <CharString name="uniFB2D">
          91 -10 91 152 67 321 67 hstemhm
          56 63 157 -29 callsubr
          hintmask 11111010
          88 621 -67 callsubr
          516 -213 -104 callsubr
          hintmask 11110110
          -47 callsubr
        </CharString>
        <CharString name="uniFB2E">
          21 -94 37 hstem
          217 162 vstem
          552 -91 callsubr
          -59 -57 22 callgsubr
          162 hlineto
          endchar
        </CharString>
        <CharString name="uniFB2F">
          21 -94 37 hstem
          280.5 35 vstem
          552 -91 callsubr
          -59 -57 22 callgsubr
          67 hlineto
          -7 -100 rlineto
          42 hlineto
          -7 100 rlineto
          67 hlineto
          endchar
        </CharString>
        <CharString name="uniFB30">
          21 73 67 hstem
          233 63 vstem
          552 -91 callsubr
          -173 140 -103 callsubr
        </CharString>
        <CharString name="uniFB31">
          -31 36 callsubr
          144 63 115 107 vstem
          429 -32 callsubr
          -291 215 -35 callsubr
        </CharString>
        <CharString name="uniFB32">
          -170 263 67 hstem
          69 63 80 -58 callsubr
          -150 263 rmoveto
          19 12 16 18 -53 callsubr
          -18 13 -16 19 hvcurveto
          endchar
        </CharString>
        <CharString name="uniFB33">
          -24 -28 callsubr
          129 63 95 -22 callgsubr
          -126 -33 -103 callsubr
        </CharString>
        <CharString name="uniFB34">
          -7 -28 callsubr
          55 107 85 63 84 -39 callgsubr
          224 58 -103 callsubr
        </CharString>
        <CharString name="uniFB35">
          -325 263 67 hstem
          -38 63 44 107 vstem
          69 hmoveto
          -17 callsubr
          -75 -115 -103 callsubr
        </CharString>
        <CharString name="uniFB36">
          -177 -28 callsubr
          18 63 44 107 vstem
          125 -22 callsubr
          87 82 -298 -82 109 hlineto
          -17 -25 -11 -41 -51 vvcurveto
          -75 -33 -103 callsubr
        </CharString>
        <CharString name="uniFB38">
          5 273 67 146.5 84 hstem
          265 63 102 -59 callgsubr
          252 -222 -103 callsubr
        </CharString>
        <CharString name="uniFB39">
          -325 357 67 hstem
          -34 63 40 107 vstem
          69 210 rmoveto
          106 20 1 63 rlineto
          152 vlineto
          -44 callgsubr
          -71 -21 -103 callsubr
        </CharString>
        <CharString name="uniFB3A">
          -58 -28 callsubr
          142 63 133 -20 callsubr
          -164 -50 -103 callsubr
        </CharString>
        <CharString name="uniFB3B">
          -87 36 callsubr
          139 63 120 107 vstem
          37 -42 callgsubr
          134 248 -103 callsubr
        </CharString>
        <CharString name="uniFB3C">
          -79 263 67 150 82 -82 237 hstemhm
          38 97 -40 63 hintmask 01010000
          135 562 rmoveto
          hintmask 00110000
          155 -97 vlineto
          hintmask 01010000
          -5 callsubr
          hintmask 11001000
          -319 -232 -103 callsubr
        </CharString>
        <CharString name="uniFB3E">
          24 callsubr
          190.65 67 154 86 hstem
          304 63 106 -72 callgsubr
          -208 3 -35 callsubr
        </CharString>
        <CharString name="uniFB40">
          -191 0 82 181 67 hstem
          65 63 77 107 vstem
          43 -25 callsubr
          54 248 -103 callsubr
        </CharString>
        <CharString name="uniFB41">
          18 -10 97 181 67 145 82 hstem
          263 63 100 106 vstem
          532 -64 callsubr
          89 248 -103 callsubr
        </CharString>
        <CharString name="uniFB43">
          -10 -28 callsubr
          52.62 95.92 107.46 63 65 107 vstem
          287 -54 callgsubr
          1 -232 -103 callsubr
        </CharString>
        <CharString name="uniFB44">
          -17 0 82 176 67 155 82 hstem
          56.06 95.09 106.85 63 75 -67 callgsubr
          224 243 -103 callsubr
        </CharString>
        <CharString name="uniFB46">
          -29 0 82 83 67 hstem
          109 63 vstem
          488 -24 callgsubr
          -140 241 rlineto
          -174 -42 -35 callsubr
        </CharString>
        <CharString name="uniFB47">
          2 -1 83 191 67 140 82 hstem
          52 107 89 63 91.5 -60 callsubr
          228 58 -103 callsubr
        </CharString>
        <CharString name="uniFB48">
          -85 -28 callsubr
          125 63 121 107 vstem
          309 hmoveto
          107 375 hlineto
          -43 callgsubr
          -212 -82 185 hlineto
          -27 callsubr
          -152 -50 -103 callsubr
        </CharString>
        <CharString name="uniFB49">
          91 -10 91 152 67 hstemhm
          276 -29 callsubr
          hintmask 11101000
          604 408 -104 callsubr
          hintmask 11011000
          -47 callsubr
        </CharString>
        <CharString name="uniFB4A">
          53 -28 callsubr
          118 106 79 63 85 -49 callgsubr
          315 271 -103 callsubr
        </CharString>
        <CharString name="uniFB4B">
          -325 627 67 hstemhm
          68 63 -62 107 hintmask 00000000
          hintmask 11000000
          100 694 rmoveto
          -77 callgsubr
          -92 callsubr
          -52 callgsubr
          hintmask 10100000
          -31 -694 rmoveto
          -17 callsubr
          endchar
        </CharString>
        <CharString name="upsilonlatin">
          -19 -12 83 337 81 hstemhm
          35 194 -183 102 170 193 -113 102 hintmask 11010100
          273 -12 rmoveto
          145 82 108 111 93 -42 67 -40 39 hvcurveto
          2 vlineto
          hintmask 11011000
          93 81 -193 -65 hlineto
          hintmask 11010100
          48 -46 32 -59 -90 vvcurveto
          -86 -42 -72 -83 -83 -42 72 86 90 32 59 49 46 vhcurveto
          hintmask 11100100
          65 -194 -81 vlineto
          hintmask 11010100
          93 -2 hlineto
          -40 -39 -42 -67 -93 vvcurveto
          -111 83 -108 144 vhcurveto
          endchar
        </CharString>
        <CharString name="v">
          -82 0 79 hstem
          12 459 -29 callgsubr
          endchar
        </CharString>
        <CharString name="w">
          170 0 84 301 104 hstem
          24 687 vstem
          156 hmoveto
          117 hlineto
          61 242 12 46 9 46 10 51 rlinecurve
          4 hlineto
          11 -51 9 -45 11 -46 63 -243 rcurveline
          121 hlineto
          127 489 rlineto
          -95 hlineto
          -64 -266 -10 -47 -8 -45 -10 -47 -6 callsubr
          -11 47 -10 45 -12 47 -70 266 rcurveline
          -94 hlineto
          -69 -266 -12 -46 -10 -46 -10 -47 -6 callsubr
          -9 47 -8 45 -10 47 -65 266 rcurveline
          23 callsubr
        </CharString>
        <CharString name="x">
          -99 0 489 hstem
          14 438 vstem
          14 hmoveto
          105 hlineto
          58 104 46 87 15 callgsubr
          18 -28 17 -30 16 -29 65 -104 rcurveline
          109 hlineto
          -157 244 146 245 rlineto
          -105 hlineto
          -52 -99 -13 -27 -14 -28 -14 -27 -6 callsubr
          -46 82 -59 99 rlineto
          -109 hlineto
          146 -234 rlineto
          endchar
        </CharString>
        <CharString name="y">
          36 callgsubr
          99 -205 -90 callgsubr
        </CharString>
        <CharString name="yacute">
          36 callgsubr
          245 -75 callsubr
          -95 -828 -90 callgsubr
        </CharString>
        <CharString name="ydieresis">
          -82 -205 82 705 112 hstem
          96 -7 callsubr
          vstem
          152 -98 callsubr
          -253 -787 -90 callgsubr
        </CharString>
        <CharString name="yen">
          -74 callsubr
        </CharString>
        <CharString name="yen.heb">
          -25 endchar
        </CharString>
        <CharString name="yen.lat">
          -74 callsubr
        </CharString>
        <CharString name="z">
          -130 0 32 callgsubr
          hstem
          33 377 vstem
          33 hmoveto
          -65 callgsubr
          endchar
        </CharString>
        <CharString name="zcaron">
          -130 0 32 callgsubr
          86 -1 callgsubr
          33 377 vstem
          187 -85 callsubr
          -42 -712 rmoveto
          -65 callgsubr
          endchar
        </CharString>
        <CharString name="zero">
          -91 callgsubr
        </CharString>
        <CharString name="zero.heb">
          -91 callgsubr
        </CharString>
        <CharString name="zero.lat">
          -91 callgsubr
        </CharString>
        <CharString name="zero.pnumheb">
          -43 endchar
        </CharString>
        <CharString name="zero.pnumlat">
          -63 endchar
        </CharString>
        <CharString name="zero.slash">
          -65 endchar
        </CharString>
        <CharString name="zero.slashpnum">
          -65 endchar
        </CharString>
      <CharString index="0">
        rmoveto
        59 52 30 38 45 hvcurveto
        3 hlineto
        8 -56 rlineto
        83 294 hlineto
        130 -56 77 -121 -78 -69 -32 -32 -50 vhcurveto
        38 -68 rlineto
        26 41 48 24 52 hhcurveto
        72 21 -51 -57 1 hvcurveto
        -204 -22 -89 -54 -105 vvcurveto
        -87 60 -55 84 vhcurveto
        31 80 rmoveto
        -44 -33 21 48 55 49 37 146 18 hvcurveto
        -121 vlineto
        -37 -41 -34 -21 -43 hhcurveto
        return
      </CharString>
      <CharString index="1">
        rmoveto
        138 -70 93 -129 -114 -109 -98 -159 -161 105 -95 133 64 56 22 30 45 vhcurveto
        -35 64 rlineto
        -23 -36 -37 -14 -44 hhcurveto
        -77 -69 47 104 -10 hvcurveto
        323 hlineto
        2 12 2 20 20 vvcurveto
        -325 18 rmoveto
        94 14 58 40 56 hhcurveto
        71 38 -49 -85 hvcurveto
        return
      </CharString>
      <CharString index="2">
        -59 -12 80 161 56 62 56 166 80 hstem
        80 103 vstem
        441 134 rmoveto
        -43 -31 -34 -23 -46 hhcurveto
        -74 -49 60 101 -18 hvcurveto
        202 56 -208 hlineto
        -1 11 0 12 0 12 0 9 0 9 9 flex1
        248 56 -243 hlineto
        104 17 50 62 79 hhcurveto
        40 31 -22 -32 27 hvcurveto
        58 56 rlineto
        46 -37 -56 32 -60 hhcurveto
        -131 -95 -91 -156 -25 hvcurveto
        -64 -4 rlineto
        -51 58 vlineto
        -1 -10 0 -10 0 -10 0 -11 0 -11 -11 flex1
        -58 -4 rlineto
        -51 64 vlineto
        -154 25 92 -87 121 hhcurveto
        73 57 34 59 45 hvcurveto
        endchar
      </CharString>
      <CharString index="3">
        36 26 25 36 35 -26 25 -36 -36 -26 -25 -35 -36 26 -25 36 hvcurveto
        return
      </CharString>
      <CharString index="4">
        -59 -12 83 221 75 201 81 hstemhm
        160 161 11 102 -80 102 hintmask 11110100
        238 -12 26 callsubr
        98 68 115 86 -59 55 -76 19 25 callgsubr
        69 27 44 48 74 vvcurveto
        105 -82 60 -117 -76 -60 -33 -47 -52 vhcurveto
        53 -63 rlineto
        37 38 42 25 51 hhcurveto
        63 38 -35 -57 -62 -43 -47 -129 hvcurveto
        hintmask 11110100
        -75 vlineto
        148 46 -46 -70 -65 -51 -40 -73 -68 -49 33 39 -39 hvcurveto
        -49 -65 rlineto
        -49 44 67 -41 102 hhcurveto
        endchar
      </CharString>
      <CharString index="5">
        -59 -12 73 515 73 hstemhm
        41 90 -61 91 195 85 -71 95 hintmask 11100100
        254 -12 rmoveto
        127 84 75 97 85 -52 46 -58 34 hvcurveto
        4 vlineto
        hintmask 11011000
        40 29 46 55 65 vvcurveto
        101 -71 70 -113 -107 -80 -66 -101 -67 40 -47 48 -34 vhcurveto
        -4 vlineto
        hintmask 11100100
        -60 -32 -57 -54 -81 vvcurveto
        -102 91 -73 122 vhcurveto
        hintmask 11011000
        43 366 rmoveto
        -73 29 -63 30 69 vvcurveto
        58 41 36 53 64 37 -45 -59 -43 -21 -39 -38 -36 vhcurveto
        hintmask 11100100
        -41 -293 rmoveto
        -71 -54 46 66 53 33 44 44 31 hvcurveto
        89 -36 73 -27 -75 vvcurveto
        -62 -47 -40 -67 vhcurveto
        endchar
      </CharString>
      <CharString index="6">
        711 rmoveto
        32 23 23 32 32 -23 23 -32 -32 -23 -23 -32 -32 23 -23 32 hvcurveto
        210 hmoveto
        32 23 23 32 32 -23 23 -32 -32 -23 -23 -32 -32 23 -23 32 hvcurveto
        return
      </CharString>
      <CharString index="7">
        26 callsubr
        65 67 82 92 -76 31 -68 25 hvcurveto
        -54 20 -51 16 42 vvcurveto
        34 26 27 54 41 34 -18 -25 34 vhcurveto
        47 63 rlineto
        31 -39 -54 26 -65 hhcurveto
        -108 -66 -61 -82 -82 75 -35 66 -25 hvcurveto
        53 -20 55 -20 -45 vvcurveto
        -37 -28 -29 -58 -53 -43 22 34 -43 vhcurveto
        -48 -65 rlineto
        -39 47 69 -29 68 hhcurveto
        return
      </CharString>
      <CharString index="8">
        -59 -12 78 252 74 174 83 hstem
        46 94 233 94 vstem
        283 392 rmoveto
        -48 -57 -29 -48 -38 hvcurveto
        187 4 70 64 84 hhcurveto
        39 40 -20 -29 24 hvcurveto
        55 62 rlineto
        39 -37 -53 31 -73 hhcurveto
        -129 -118 -101 -251 -210 101 -99 125 106 89 82 125 132 -74 65 -110 hvcurveto
        -12 -326 rmoveto
        -70 -47 56 117 -11 hvcurveto
        57 38 46 22 38 hhcurveto
        70 38 -44 -79 -80 -45 -49 -57 hvcurveto
        endchar
      </CharString>
      <CharString index="9">
        33 23 25 31 32 -23 24 -33 -32 -24 -24 -32 -31 24 -25 32 hvcurveto
        return
      </CharString>
      <CharString index="10">
        298 -160 65 141 66 -58 67 245 68 154 65 hstemhm
        50 72 129 79 415 68 hintmask 11011111
        410 -160 rmoveto
        70 63 16 34 59 hvcurveto
        -25 58 rlineto
        -25 -44 -57 -18 -58 hhcurveto
        -166 -130 106 196 231 171 150 176 186 90 -121 -156 -124 -68 -75 -62 -52 -18 35 73 18 hvcurveto
        41 206 rlineto
        -65 hlineto
        -12 -41 rlineto
        -2 hlineto
        34 -18 -27 15 -34 hhcurveto
        -116 -79 -125 -111 hvcurveto
        hintmask 10111111
        -91 53 -53 71 43 47 29 39 31 vhcurveto
        2 hlineto
        hintmask 11011111
        -50 8 44 -26 55 hhcurveto
        95 113 91 177 201 -130 138 -206 -230 -197 -178 -271 -240 163 -124 197 hvcurveto
        hintmask 10111111
        -15 281 rmoveto
        -38 -27 25 58 71 45 91 73 25 18 -11 -27 16 hvcurveto
        -27 -152 rlineto
        -39 -32 -27 -16 -26 hhcurveto
        endchar
      </CharString>
      <CharString index="11">
        38 30 30 41 42 -30 30 -38 -38 -30 -30 -42 -41 -26 callsubr
        return
      </CharString>
      <CharString index="12">
        89 74 33 44 43 hvcurveto
        283 -222 -84 130 -154 vlineto
        -21 -23 -40 -12 -41 hhcurveto
        -135 -73 96 156 154 81 95 123 63 40 -26 -33 33 hvcurveto
        55 66 rlineto
        41 -40 -62 41 -92 hhcurveto
        -174 -132 -128 -213 return
      </CharString>
      <CharString index="13">
        61 -12 79 530 70 hstemhm
        30 97 -13 86 131 80 hintmask 11101000
        610 71 rmoveto
        -35 9 -42 19 -43 28 51 69 37 78 25 84 rrcurveto
        -93 hlineto
        -19 -71 -30 -61 -39 -50 -58 46 -56 58 -42 60 rrcurveto
        72 51 73 55 86 vvcurveto
        80 -52 55 -86 vhcurveto
        hintmask 11011000
        -96 -63 -71 -89 -46 16 -51 26 -51 hvcurveto
        hintmask 11101000
        -66 -45 -60 -54 -89 vvcurveto
        -104 80 -79 125 79 63 28 45 52 vhcurveto
        53 -36 54 -25 48 -12 rrcurveto
        hintmask 11011000
        -384 520 rmoveto
        52 30 37 44 41 16 -30 -36 -54 -47 -36 -56 -37 vhcurveto
        -18 36 -10 36 32 vvcurveto
        hintmask 11101000
        -73 -331 rmoveto
        45 30 35 41 33 vhcurveto
        44 -64 57 -62 62 -52 rrcurveto
        -28 -35 -39 -17 -40 hhcurveto
        -68 -52 44 66 hvcurveto
        endchar
      </CharString>
      <CharString index="14">
        rmoveto
        36 33 9 9 27 hvcurveto
        -18 75 rlineto
        -6 -15 -21 -6 -17 hhcurveto
        -51 -21 31 59 hvcurveto
        249 128 81 -128 135 -84 vlineto
        -12 -135 -76 -5 rlineto
        -76 71 -249 vlineto
        -102 39 -69 109 vhcurveto
        return
      </CharString>
      <CharString index="15">
        246 -12 rmoveto
        55 51 30 37 37 hvcurveto
        3 hlineto
        8 -55 rlineto
        83 709 -101 -182 hlineto
        4 -81 rlineto
        34 -40 -36 21 -56 hhcurveto
        -109 -100 -98 -159 -162 79 -94 122 hvcurveto
        24 84 rmoveto
        -77 -44 62 111 106 56 66 69 36 35 -12 -33 37 hvcurveto
        -240 vlineto
        -41 -36 -35 -19 -41 hhcurveto
        return
      </CharString>
      <CharString index="16">
        -59 -12 80 501 80 hstem
        42 97 228 97 vstem
        253 -12 rmoveto
        130 81 119 214 214 -81 114 -130 -130 -81 -113 -215 -214 81 -119 130 hvcurveto
        80 vmoveto
        -67 -47 70 183 183 47 65 67 67 47 -65 -183 -183 -47 -70 -67 hvcurveto
        endchar
      </CharString>
      <CharString index="17">
        rmoveto
        103 51 70 105 38 hvcurveto
        180 519 rlineto
        -98 hlineto
        -79 -253 -13 -44 -13 -49 -13 -45 -6 callsubr
        -15 46 -15 49 -15 43 -91 253 rcurveline
        -103 hlineto
        194 -486 -10 -33 rlineto
        -54 -18 -32 -39 -53 hhcurveto
        -12 -14 4 3 -10 hvcurveto
        -19 -79 rlineto
        -6 17 19 -4 25 hhcurveto
        endchar
      </CharString>
      <CharString index="18">
        -59 169 79 290 99 hstem
        301 95 vstem
        479 248 rmoveto
        -83 389 -117 hlineto
        -261 -400 rlineto
        -68 283 -169 95 169 83 vlineto
        -359 79 rmoveto
        130 195 18 33 18 30 16 32 rlinecurve
        4 hlineto
        -2 -35 -3 -57 -36 vvcurveto
        -162 vlineto
        endchar
      </CharString>
      <CharString index="19">
        101 347 hlineto
        44 44 31 23 46 hhcurveto
        58 25 -34 -85 hvcurveto
        -295 101 308 vlineto
        124 -46 69 -104 -67 return
      </CharString>
      <CharString index="20">
        566 26 callsubr
        107 15 callgsubr
        120 -107 41 38 -112 137 rlineto
        -102 hlineto
        -112 -137 rlineto
        return
      </CharString>
      <CharString index="21">
        -59 -110 181 495 81 -81 181 -101 -20 21 -20 hstemhm
        73 98 49 71 57 98 hintmask 10001111
        446 171 rmoveto
        hintmask 11000111
        208 -275 -31 131 vvcurveto
        54 36 33 57 51 30 -20 -35 37 vhcurveto
        53 59 -37 39 -43 31 -64 7 rlinecurve
        hintmask 10100111
        100 -71 vlineto
        hintmask 10010111
        -101 vlineto
        -89 -15 -58 -65 -92 -190 275 25 -145 vvcurveto
        -57 -34 -36 -69 -57 -49 27 37 -45 vhcurveto
        -46 -69 44 -41 66 -29 62 -7 rlinecurve
        -99 71 102 vlineto
        hintmask 10001111
        97 16 58 68 95 vvcurveto
        endchar
      </CharString>
      <CharString index="22">
        -130 317 40 127 35 63 36 56 40 hstem
        26 44 72 46 64 49 63 44 vstem
        217 317 rmoveto
        105 86 81 117 117 -86 82 -105 -105 -86 -82 -117 -117 86 -81 105 hvcurveto
        40 vmoveto
        -84 -63 64 94 94 63 65 84 84 63 -65 -94 -94 -63 -64 -84 hvcurveto
        -75 60 rmoveto
        46 67 37 hlineto
        34 -67 rlineto
        50 hlineto
        -45 81 rlineto
        23 9 14 22 24 vvcurveto
        47 -36 18 -43 vhcurveto
        -80 hlineto
        46 -99 rmoveto
        63 26 vlineto
        27 11 -13 -19 -20 -15 -11 -25 hvcurveto
        endchar
      </CharString>
      <CharString index="23">
        rmoveto
        136 152 rlineto
        74 vlineto
        -136 152 -41 -34 116 -155 -116 -156 rlineto
        return
      </CharString>
      <CharString index="24">
        -250 -152 56 343 62 343 56 hstemhm
        118 87 -23 100 hintmask 11110000
        35 39 callgsubr
        50 hlineto
        82 38 31 105 hvcurveto
        72 -9 48 66 vvcurveto
        hintmask 11101000
        38 19 38 67 1 vhcurveto
        62 vlineto
        hintmask 11110000
        -67 1 -19 38 37 67 9 48 72 vvcurveto
        105 -38 31 -82 vhcurveto
        -50 -56 24 hlineto
        51 13 -23 -62 hvcurveto
        -58 -5 -52 -66 vvcurveto
        -68 19 -31 45 -12 vhcurveto
        -4 vlineto
        -45 -12 -19 -32 -67 -66 5 -51 -59 vvcurveto
        -62 -13 -23 -51 vhcurveto
        -24 hlineto
        endchar
      </CharString>
      <CharString index="25">
        571 rmoveto
        -27 callgsubr
        -61 10 rlineto
        -49 -7 -30 -48 -62 hhcurveto
        -61 -31 8 callsubr
        return
      </CharString>
      <CharString index="26">
        -59 199 68 137 68 hstem
        35 441 vstem
        89 hmoveto
        63 hlineto
        24 199 rlineto
        124 hlineto
        -24 -199 rlineto
        63 hlineto
        24 199 rlineto
        93 68 -85 hlineto
        17 137 rlineto
        88 68 -80 hlineto
        22 178 rlineto
        -62 hlineto
        -23 -178 rlineto
        -124 hlineto
        22 178 rlineto
        -62 hlineto
        -23 -178 rlineto
        -91 -68 83 hlineto
        -17 -137 rlineto
        -86 -68 78 hlineto
        71 68 rmoveto
        17 137 rlineto
        124 hlineto
        -17 -137 rlineto
        endchar
      </CharString>
      <CharString index="27">
        -476 667 -20 hstem
        -168 423 vstem
        -168 -78 callsubr
        endchar
      </CharString>
      <CharString index="28">
        12 -373 rmoveto
        -82 -50 29 48 25 13 25 30 22 hvcurveto
        -5 20 22 -2 23 hhcurveto
        75 hlineto
        59 32 -13 -41 -46 -57 -42 -85 hvcurveto
        endchar
      </CharString>
      <CharString index="29">
        rmoveto
        41 33 -116 156 116 155 -41 34 -136 -152 rlineto
        -74 vlineto
        return
      </CharString>
      <CharString index="30">
        -19 -13 -16 -17 return
      </CharString>
      <CharString index="31">
        -129 -12 143 468 83 hstemhm
        136 136 20 98 hintmask 11010000
        158 208 rmoveto
        89 hlineto
        -15 134 158 48 129 vvcurveto
        104 -71 59 -103 -74 -59 -36 -49 -44 vhcurveto
        57 -52 rlineto
        33 30 36 21 42 hhcurveto
        57 31 -37 -50 -97 -155 -57 21 -150 hvcurveto
        hintmask 11110000
        46 -220 rmoveto
        -4 callgsubr
      </CharString>
      <CharString index="32">
        705 31 callsubr
        100 112 -44 30 -108 -90 rlineto
        -4 hlineto
        -108 90 -44 -30 rlineto
        return
      </CharString>
      <CharString index="33">
        -95 81 77 316 77 161 -20 hstem
        196 78 vstem
        193 -80 rmoveto
        84 hlineto
        -6 164 40 callsubr
        -8 6 162 -6 162 148 -8 -65 callsubr
        8 -6 -162 6 -162 -148 8 38 callgsubr
      </CharString>
      <CharString index="34">
        -226 381 58 94 46 84 58 hstem
        27 71 152 64 vstem
        188 381 rmoveto
        43 40 15 21 32 hvcurveto
        -27 46 rlineto
        -15 -23 -27 -9 -29 hhcurveto
        -55 -38 33 61 -5 hvcurveto
        211 hlineto
        3 15 1 7 15 vvcurveto
        69 -35 82 -100 -82 -70 -66 -104 -108 71 -62 90 vhcurveto
        -90 198 rmoveto
        54 7 31 30 44 hhcurveto
        52 18 -43 -41 hvcurveto
        endchar
      </CharString>
      <CharString index="35">
        102 vstem
        575 294 rmoveto
        196 -3 -85 80 -125 hhcurveto
        -70 -62 -42 -84 -28 hvcurveto
        -45 118 rlineto
        -111 hlineto
        78 -175 -72 -387 rlineto
        107 hlineto
        67 383 rlineto
        -1 hlineto
        57 14 38 44 66 hhcurveto
        76 51 -49 -141 3 hvcurveto
        3 -166 -58 -83 -155 35 -11 -82 rcurveline
        208 -47 118 117 -3 226 rrcurveto
        return
      </CharString>
      <CharString index="36">
        86 hmoveto
        102 198 hlineto
        102 124 185 -322 rlineto
        113 hlineto
        -236 402 203 253 rlineto
        -114 hlineto
        -250 -311 rlineto
        -3 311 -102 hlineto
        return
      </CharString>
      <CharString index="37">
        -34 callsubr
        194 hmoveto
        -101 callsubr
        endchar
      </CharString>
      <CharString index="38">
        692 rmoveto
        161 116 -56 67 -150 -132 rlineto
        return
      </CharString>
      <CharString index="39">
        rmoveto
        -3 -3 0 -1 -3 hvcurveto
        58 27 35 53 32 vhcurveto
        -26 46 rlineto
        -77 -42 -40 -62 -84 vvcurveto
        -65 26 -37 46 35 25 24 39 36 -28 21 -32 vhcurveto
        endchar
      </CharString>
      <CharString index="40">
        107 vstem
        66 hmoveto
        203 hlineto
        134 100 79 174 hvcurveto
        58 vlineto
        159 -79 92 -133 vhcurveto
        -191 hlineto
        -39 -172 -20 -107 33 -73 131 -8 rlinecurve
        19 69 -68 14 -14 32 14 64 rlinecurve
        22 99 rlineto
        90 hlineto
        87 41 -62 -103 hvcurveto
        -67 vlineto
        -117 -62 -49 -87 vhcurveto
        -181 hlineto
        return
      </CharString>
      <CharString index="41">
        -121 7 callgsubr
        170 61 106 61 vstem
        95 63 -84 callgsubr
        208 -33 -14 callsubr
      </CharString>
      <CharString index="42">
        377 81 -250 hlineto
        242 354 rlineto
        54 -342 -81 215 vlineto
        -242 -354 rlineto
        return
      </CharString>
      <CharString index="43">
        -91 hlineto
        -62 -20 19 29 24 11 14 16 14 hvcurveto
        -10 22 25 -5 22 hhcurveto
        102 81 61 107 37 -14 33 -19 20 hvcurveto
        94 76 -173 hlineto
        return
      </CharString>
      <CharString index="44">
        -121 7 callgsubr
        46 61 106 61 vstem
        182 63 -78 callgsubr
        303 -152 -10 callgsubr
      </CharString>
      <CharString index="45">
        -248 214 75 hstem
        42 234 vstem
        42 214 rmoveto
        234 75 -234 hlineto
        endchar
      </CharString>
      <CharString index="46">
        3 440 rmoveto
        -51 -42 40 66 66 41 38 52 52 41 -38 -66 -66 -42 -40 -51 hvcurveto
        return
      </CharString>
      <CharString index="47">
        -261 -12 143 hstemhm
        84 136 -109 82 hintmask 10100000
        118 208 rmoveto
        68 hlineto
        14 357 3 105 rlineto
        -102 hlineto
        3 -105 rlineto
        hintmask 11000000
        48 -577 rmoveto
        -4 callgsubr
      </CharString>
      <CharString index="48">
        105 vstem
        112 -10 rmoveto
        252 11 180 97 -9 244 -1 28 rcurveline
        -5 130 -83 62 -114 7 -59 3 rcurveline
        -8 -84 50 -3 rlineto
        79 -5 36 -54 -69 vvcurveto
        -28 vlineto
        5 -158 -88 -70 -141 -14 -54 475 rcurveline
        -107 hlineto
        return
      </CharString>
      <CharString index="49">
        -72 -33 -55 -85 -3 hvcurveto
        66 -4 rlineto
        45 3 13 27 27 hhcurveto
        return
      </CharString>
      <CharString index="50">
        7 -19 -25 5 -27 hhcurveto
        -101 -88 -65 -110 -58 31 -47 33 -25 hvcurveto
        -4 vlineto
        return
      </CharString>
      <CharString index="51">
        576 rmoveto
        hintmask 10101100
        0 callgsubr
        hintmask 10011100
        -47 callgsubr
        hintmask 01001100
        -58 callgsubr
        hintmask 10011100
        12 callsubr
        endchar
      </CharString>
      <CharString index="52">
        -95 473 78 161 -20 hstem
        196 78 vstem
        193 -80 rmoveto
        84 hlineto
        -6 556 148 -6 -65 callsubr
        6 rlineto
        endchar
      </CharString>
      <CharString index="53">
        562 rmoveto
        -197 hlineto
        -34 -158 -13 -111 16 -60 120 -11 rlinecurve
        22 66 -52 10 -7 37 11 64 rlinecurve
        16 81 rlineto
        92 hlineto
        87 36 -62 -103 hvcurveto
        -515 107 511 vlineto
        159 -70 92 -134 vhcurveto
        return
      </CharString>
      <CharString index="54">
        -61 -10 rlineto
        -78 5 46 -75 109 hhcurveto
        return
      </CharString>
      <CharString index="55">
        17 -26 callgsubr
        return
      </CharString>
      <CharString index="56">
        -301 -12 83 638 -20 14 callgsubr
        178 -12 rmoveto
        25 17 4 5 13 hvcurveto
        -13 76 rlineto
        -2 -9 -4 0 -5 hhcurveto
        -12 -12 10 27 hvcurveto
        601 -101 -595 vlineto
        -79 28 -47 73 vhcurveto
        endchar
      </CharString>
      <CharString index="57">
        86 213 86 184 86 return
      </CharString>
      <CharString index="58">
        107 vstem
        30 -16 rmoveto
        135 13 59 52 134 vvcurveto
        297 137 vlineto
        -27 callsubr
        -380 107 375 vlineto
        -43 callgsubr
        -270 -391 hlineto
        -71 -18 -33 -80 -8 vhcurveto
        return
      </CharString>
      <CharString index="59">
        17 21 callgsubr
        40 289 55 102 vstem
        294 218 rmoveto
        35 437 -44 hlineto
        -138 -107 -56 -160 -151 110 -70 144 hvcurveto
        90 -298 rmoveto
        102 735 23 callsubr
      </CharString>
      <CharString index="60">
        -66 4 rlineto
        -44 -3 -13 -28 -26 -43 -29 78 -68 hhcurveto
        return
      </CharString>
      <CharString index="61">
        71 -8 75 -5 68 vhcurveto
        4 hlineto
        69 -137 218 -388 rlineto
        105 655 -97 -308 hlineto
        -71 8 -79 5 -67 vhcurveto
        -4 hlineto
        -69 138 -218 387 rlineto
        -105 hlineto
        endchar
      </CharString>
      <CharString index="62">
        -59 577 93 hstem
        57 392 vstem
        57 281 rmoveto
        86 hlineto
        60 162 48 134 15 callgsubr
        48 -134 60 -162 rlineto
        86 hlineto
        -153 389 rlineto
        -86 hlineto
        endchar
      </CharString>
      <CharString index="63">
        -13 117 rlineto
        -106 hlineto
        12 -117 rlineto
        return
      </CharString>
      <CharString index="64">
        136 -70 51 -100 vhcurveto
        return
      </CharString>
      <CharString index="65">
        hmoveto
        170 hlineto
        144 78 93 159 hvcurveto
        58 vlineto
        159 -78 93 -144 vhcurveto
        -170 -82 144 hlineto
        97 44 -62 -103 hvcurveto
        -68 vlineto
        -102 -44 -63 -97 vhcurveto
        -144 hlineto
        return
      </CharString>
      <CharString index="66">
        59 20 34 59 63 vvcurveto
        118 -96 43 -134 vhcurveto
        -203 hlineto
        102 -274 rmoveto
        194 92 vlineto
        92 47 -26 -69 -61 -42 -38 -100 hvcurveto
        -89 -301 rmoveto
        224 105 vlineto
        return
      </CharString>
      <CharString index="67">
        557 rmoveto
        73 43 43 57 57 -43 43 -73 -73 -43 -43 -57 -57 43 -43 73 hvcurveto
        42 vmoveto
        -29 -24 23 35 35 24 23 29 30 23 -23 -35 -35 -23 -23 -30 hvcurveto
        return
      </CharString>
      <CharString index="68">
        107 vstem
        394 hmoveto
        107 375 hlineto
        -43 callgsubr
        -273 -82 246 hlineto
        -27 callsubr
        -339 -380 rmoveto
        107 339 -92 hlineto
        -15 -67 rlineto
        return
      </CharString>
      <CharString index="69">
        rmoveto
        -58 238 -90 hlineto
        -157 -252 rlineto
        -39 178 -99 69 99 58 vlineto
        -229 53 rmoveto
        56 93 47 80 15 callgsubr
        -5 -111 rlineto
        -62 vlineto
        endchar
      </CharString>
      <CharString index="70">
        -56 -40 82 -80 hhcurveto
        -45 -47 -27 -67 -40 hvcurveto
        55 -40 rlineto
        41 22 25 19 28 hhcurveto
        return
      </CharString>
      <CharString index="71">
        -27 -19 -27 -33 -39 vvcurveto
        -39 19 -26 25 -16 vhcurveto
        -4 vlineto
        return
      </CharString>
      <CharString index="72">
        rmoveto
        -38 -32 -25 -40 -42 32 -23 36 3 3 0 1 3 hvcurveto
        -53 -35 -44 -61 -25 vhcurveto
        23 -57 rlineto
        91 34 54 72 93 vvcurveto
        68 -29 41 -50 vhcurveto
        endchar
      </CharString>
      <CharString index="73">
        731 rmoveto
        278 68 -278 hlineto
        return
      </CharString>
      <CharString index="74">
        -249 137 252 hstem
        40 236 vstem
        158 137 rmoveto
        64 54 52 74 74 -54 52 -64 -64 -54 -52 -74 -74 54 -52 64 hvcurveto
        endchar
      </CharString>
      <CharString index="75">
        -58 -12 -33 -46 -16 -15 4 4 -13 vhcurveto
        -19 -76 rlineto
        return
      </CharString>
      <CharString index="76">
        105 -20 callgsubr
        return
      </CharString>
      <CharString index="77">
        -250 -152 56 748 56 hstem
        147 76 vstem
        35 39 callgsubr
        188 860 -188 -56 112 -748 -112 hlineto
        endchar
      </CharString>
      <CharString index="78">
        vstem
        185 hmoveto
        117 hlineto
        169 489 rlineto
        -98 hlineto
        -84 -264 -43 -146 rlineto
        -4 hlineto
        -43 146 -84 264 rlineto
        -103 hlineto
        return
      </CharString>
      <CharString index="79">
        rmoveto
        156 99 77 94 83 -60 36 -115 hvcurveto
        return
      </CharString>
      <CharString index="80">
        110 45 75 78 5 hvcurveto
        return
      </CharString>
      <CharString index="81">
        -12 16 -19 hvcurveto
        return
      </CharString>
      <CharString index="82">
        -250 -152 56 748 56 hstem
        92 76 vstem
        92 39 callgsubr
        188 56 -112 748 112 56 -188 hlineto
        endchar
      </CharString>
      <CharString index="83">
        562 rmoveto
        -107 hlineto
        -93 -222 -129 222 rlineto
        -109 hlineto
        279 -480 rlineto
        -295 -82 343 hlineto
        109 hlineto
        return
      </CharString>
      <CharString index="84">
        -19 -21 callgsubr
        return
      </CharString>
      <CharString index="85">
        107 vstem
        287 -22 callsubr
        77 82 -446 -82 267 hlineto
        -18 -25 -10 -41 -51 vvcurveto
        return
      </CharString>
      <CharString index="86">
        -12 -6 callgsubr
        return
      </CharString>
      <CharString index="87">
        -12 -9 callgsubr
        return
      </CharString>
      <CharString index="88">
        45 47 27 66 40 hvcurveto
        -55 41 rlineto
        -41 -22 -24 -19 -29 hhcurveto
        return
      </CharString>
      <CharString index="89">
        220 hmoveto
        102 569 193 86 -488 -86 193 hlineto
        return
      </CharString>
      <CharString index="90">
        -218 710 -20 hstem
        18 318 vstem
        266 -160 rmoveto
        70 hlineto
        -248 870 rlineto
        -70 hlineto
        endchar
      </CharString>
      <CharString index="91">
        91 62 76 132 131 -62 75 -91 return
      </CharString>
      <CharString index="92">
        72 6 72 -10 -20 24 -20 hstemhm
        return
      </CharString>
      <CharString index="93">
        -218 710 -20 hstem
        11 318 vstem
        11 -160 rmoveto
        70 hlineto
        248 870 rlineto
        -70 hlineto
        endchar
      </CharString>
      <CharString index="94">
        -31 callsubr
        hstem
        49 98 195 101 vstem
        return
      </CharString>
      <CharString index="95">
        143 hstem
        64 136 vstem
        132 return
      </CharString>
      <CharString index="96">
        58 -12 89 187 84 230 89 return
      </CharString>
      <CharString index="97">
        -78 callgsubr
        endchar
      </CharString>
      <CharString index="98">
        89 501 89 return
      </CharString>
      <CharString index="99">
        -85 218 68 hstem
        42 396 vstem
        42 218 rmoveto
        396 68 -396 hlineto
        endchar
      </CharString>
      <CharString index="100">
        -215 128 -123 175 return
      </CharString>
      <CharString index="101">
        83 347 83 return
      </CharString>
      <CharString index="102">
        86 hmoveto
        219 hlineto
        145 105 62 130 89 -54 51 -75 16 hvcurveto
        4 vlineto
        return
      </CharString>
      <CharString index="103">
        -96 callgsubr
        endchar
      </CharString>
      <CharString index="104">
        rmoveto
        35 27 25 36 35 -27 25 -35 -35 -27 -25 -35 -36 27 -25 35 hvcurveto
        return
      </CharString>
      <CharString index="105">
        -14 -12 87 hstem
        71 101 201 101 vstem
        return
      </CharString>
      <CharString index="106">
        68 69 -20 58 -20 hstem
        return
      </CharString>
      <CharString index="107">
        71 33 56 84 3 hvcurveto
        return
      </CharString>
      <CharString index="108">
        37 28 25 36 35 -28 25 -37 -37 -28 -25 -35 -36 28 -25 37 hvcurveto
        return
      </CharString>
      <CharString index="109">
        20 38 hhcurveto
        82 34 -64 -102 return
      </CharString>
      <CharString index="110">
        -291 655 -20 return
      </CharString>
      <CharString index="111">
        -63 -12 34 callgsubr
        95 239 88 vstem
        return
      </CharString>
      <CharString index="112">
        8 callsubr
        endchar
      </CharString>
      <CharString index="113">
        hintmask 00000000
        hintmask 11101000
        return
      </CharString>
      <CharString index="114">
        63 378 hstem
        return
      </CharString>
      <CharString index="115">
        667 rmoveto
        -359 -679 rlineto
        64 hlineto
        359 679 rlineto
        return
      </CharString>
      <CharString index="116">
        -139 -12 77 359 77 hstem
        50 96 153 96 vstem
        return
      </CharString>
      <CharString index="117">
        -7 18 25 -6 33 hhcurveto
        return
      </CharString>
      <CharString index="118">
        0 82 398 82 hstem
        return
      </CharString>
      <CharString index="119">
        73 -62 -20 76 73 hstemhm
        return
      </CharString>
      <CharString index="120">
        110 100 110 return
      </CharString>
      <CharString index="121">
        hstem
        77 101 vstem
        return
      </CharString>
      <CharString index="122">
        rlineto
        4 hlineto
        return
      </CharString>
      <CharString index="123">
        -12 60 75 60 159 60 75 60 130 -20 hstem
        return
      </CharString>
      <CharString index="124">
        588 vlineto
        58 15 33 53 13 11 -4 -4 10 vhcurveto
        return
      </CharString>
      <CharString index="125">
        rlineto
        -83 hlineto
        endchar
      </CharString>
      <CharString index="126">
        -59 183 74 146 74 hstem
        34 438 vstem
        return
      </CharString>
      <CharString index="127">
        -9 callgsubr
        14 callsubr
        return
      </CharString>
      <CharString index="128">
        655 -20 hstem
        return
      </CharString>
      <CharString index="129">
        rmoveto
        -162 -37 return
      </CharString>
      <CharString index="130">
        rlineto
        228 return
      </CharString>
      <CharString index="131">
        rmoveto
        110 142 -67 38 -95 -155 rlineto
        return
      </CharString>
      <CharString index="132">
        hvcurveto
        4 vlineto
        hintmask 11111000
        return
      </CharString>
      <CharString index="133">
        573 221 hstem
        return
      </CharString>
      <CharString index="134">
        hintmask 10111000
        111 -102 vlineto
        hintmask 11011000
        -111 return
      </CharString>
      <CharString index="135">
        87 0 130 395 130 0 -20 return
      </CharString>
      <CharString index="136">
        276 41 callgsubr
        return
      </CharString>
      <CharString index="137">
        80 224 77 194 80 hstemhm
        86 102 return
      </CharString>
      <CharString index="138">
        -128 -213 -215 return
      </CharString>
      <CharString index="139">
        81 327 81 return
      </CharString>
      <CharString index="140">
        120 hstem
        return
      </CharString>
      <CharString index="141">
        -50 callsubr
        hstem
        43 return
      </CharString>
      <CharString index="142">
        -29 -21 -25 -12 -47 -8 rrcurveto
        -49 86 return
      </CharString>
      <CharString index="143">
        -82 -205 82 hstem
        12 459 vstem
        return
      </CharString>
      <CharString index="144">
        hlineto
        63 64 -25 26 -105 -109 rlineto
        return
      </CharString>
      <CharString index="145">
        rlineto
        -84 vlineto
        148 6 rlineto
        endchar
      </CharString>
      <CharString index="146">
        -152 rmoveto
        return
      </CharString>
      <CharString index="147">
        -10 callsubr
        hstemhm
        return
      </CharString>
      <CharString index="148">
        101.5 119 107 return
      </CharString>
</ttFont>
